<svg xmlns="http://www.w3.org/2000/svg" xmlns:xlink="http://www.w3.org/1999/xlink" width="48" zoomAndPan="magnify" viewBox="0 0 36 36.000001" height="48" preserveAspectRatio="xMidYMid meet" version="1.2"><defs><clipPath id="2434fd4408"><path d="M 6 28 L 30 28 L 30 31.960938 L 6 31.960938 Z M 6 28 "/></clipPath><clipPath id="5c3054a3e3"><path d="M 17 3.503906 L 19 3.503906 L 19 8 L 17 8 Z M 17 3.503906 "/></clipPath><clipPath id="25f7274dfa"><path d="M 2.195312 14 L 7 14 L 7 16 L 2.195312 16 Z M 2.195312 14 "/></clipPath><clipPath id="8333657504"><path d="M 2.195312 23 L 7 23 L 7 26 L 2.195312 26 Z M 2.195312 23 "/></clipPath><clipPath id="ac83c79efb"><path d="M 29 14 L 33.574219 14 L 33.574219 16 L 29 16 Z M 29 14 "/></clipPath><clipPath id="a7c36d7169"><path d="M 29 23 L 33.574219 23 L 33.574219 26 L 29 26 Z M 29 23 "/></clipPath></defs><g id="5e31631495"><path style=" stroke:none;fill-rule:nonzero;fill:#ee3139;fill-opacity:1;" d="M 27.375 28.558594 L 8.394531 28.558594 L 8.394531 19.273438 C 8.394531 14.015625 12.644531 9.757812 17.886719 9.757812 C 23.128906 9.757812 27.375 14.015625 27.375 19.273438 L 27.375 28.558594 "/><path style=" stroke:none;fill-rule:nonzero;fill:#d53139;fill-opacity:1;" d="M 18.84375 28.269531 L 16.925781 28.269531 L 16.925781 19.8125 L 18.84375 19.8125 L 18.84375 28.269531 "/><path style=" stroke:none;fill-rule:nonzero;fill:#d53139;fill-opacity:1;" d="M 19.851562 21.492188 L 15.917969 21.492188 C 15.164062 21.492188 14.550781 20.878906 14.550781 20.117188 C 14.550781 19.359375 15.164062 18.746094 15.917969 18.746094 L 19.851562 18.746094 C 20.609375 18.746094 21.222656 19.359375 21.222656 20.117188 C 21.222656 20.878906 20.609375 21.492188 19.851562 21.492188 "/><path style=" stroke:none;fill-rule:nonzero;fill:#fcdbdc;fill-opacity:1;" d="M 10.738281 20.394531 C 10.292969 20.394531 9.933594 20.03125 9.933594 19.582031 C 9.933594 17.71875 10.523438 15.945312 11.644531 14.457031 C 12.730469 13.015625 14.269531 11.941406 15.980469 11.421875 C 16.410156 11.292969 16.859375 11.535156 16.988281 11.964844 C 17.117188 12.390625 16.875 12.84375 16.449219 12.972656 C 13.5625 13.847656 11.546875 16.566406 11.546875 19.582031 C 11.546875 20.03125 11.1875 20.394531 10.738281 20.394531 "/><g clip-rule="nonzero" clip-path="url(#2434fd4408)"><path style=" stroke:none;fill-rule:nonzero;fill:#324d58;fill-opacity:1;" d="M 29.550781 31.957031 L 6.21875 31.957031 L 6.21875 30.085938 C 6.21875 28.976562 7.117188 28.074219 8.222656 28.074219 L 27.546875 28.074219 C 28.65625 28.074219 29.550781 28.976562 29.550781 30.085938 L 29.550781 31.957031 "/></g><path style=" stroke:none;fill-rule:nonzero;fill:#fcdbdc;fill-opacity:1;" d="M 10.738281 24.28125 C 10.292969 24.28125 9.933594 23.917969 9.933594 23.472656 L 9.933594 22.527344 C 9.933594 22.078125 10.292969 21.714844 10.738281 21.714844 C 11.1875 21.714844 11.546875 22.078125 11.546875 22.527344 L 11.546875 23.472656 C 11.546875 23.917969 11.1875 24.28125 10.738281 24.28125 "/><g clip-rule="nonzero" clip-path="url(#5c3054a3e3)"><path style=" stroke:none;fill-rule:nonzero;fill:#faa624;fill-opacity:1;" d="M 17.886719 7.539062 C 17.480469 7.539062 17.152344 7.210938 17.152344 6.808594 L 17.152344 4.234375 C 17.152344 3.828125 17.480469 3.5 17.886719 3.5 C 18.289062 3.5 18.617188 3.828125 18.617188 4.234375 L 18.617188 6.808594 C 18.617188 7.210938 18.289062 7.539062 17.886719 7.539062 "/></g><path style=" stroke:none;fill-rule:nonzero;fill:#faa624;fill-opacity:1;" d="M 9.167969 10.039062 C 8.945312 10.039062 8.726562 9.9375 8.582031 9.746094 L 7.039062 7.6875 C 6.792969 7.363281 6.859375 6.90625 7.183594 6.660156 C 7.503906 6.417969 7.964844 6.480469 8.207031 6.804688 L 9.75 8.863281 C 9.996094 9.1875 9.929688 9.644531 9.605469 9.890625 C 9.476562 9.988281 9.320312 10.039062 9.167969 10.039062 "/><g clip-rule="nonzero" clip-path="url(#25f7274dfa)"><path style=" stroke:none;fill-rule:nonzero;fill:#faa624;fill-opacity:1;" d="M 5.519531 15.996094 C 5.472656 15.996094 5.421875 15.992188 5.375 15.980469 L 2.855469 15.476562 C 2.460938 15.394531 2.203125 15.007812 2.285156 14.613281 C 2.363281 14.214844 2.75 13.957031 3.144531 14.035156 L 5.664062 14.542969 C 6.058594 14.621094 6.316406 15.007812 6.238281 15.40625 C 6.167969 15.753906 5.859375 15.996094 5.519531 15.996094 "/></g><g clip-rule="nonzero" clip-path="url(#8333657504)"><path style=" stroke:none;fill-rule:nonzero;fill:#faa624;fill-opacity:1;" d="M 3.035156 25.597656 C 2.722656 25.597656 2.433594 25.394531 2.335938 25.082031 C 2.214844 24.695312 2.429688 24.28125 2.816406 24.164062 L 5.269531 23.398438 C 5.652344 23.277344 6.0625 23.492188 6.183594 23.878906 C 6.304688 24.265625 6.089844 24.675781 5.703125 24.796875 L 3.253906 25.5625 C 3.179688 25.585938 3.105469 25.597656 3.035156 25.597656 "/></g><path style=" stroke:none;fill-rule:nonzero;fill:#faa624;fill-opacity:1;" d="M 26.605469 10.039062 C 26.449219 10.039062 26.296875 9.988281 26.164062 9.890625 C 25.839844 9.644531 25.777344 9.1875 26.019531 8.863281 L 27.5625 6.804688 C 27.808594 6.480469 28.265625 6.417969 28.589844 6.660156 C 28.910156 6.90625 28.976562 7.363281 28.734375 7.6875 L 27.1875 9.746094 C 27.046875 9.9375 26.824219 10.039062 26.605469 10.039062 "/><g clip-rule="nonzero" clip-path="url(#ac83c79efb)"><path style=" stroke:none;fill-rule:nonzero;fill:#faa624;fill-opacity:1;" d="M 30.25 15.996094 C 29.910156 15.996094 29.605469 15.753906 29.535156 15.40625 C 29.457031 15.007812 29.710938 14.621094 30.109375 14.542969 L 32.625 14.035156 C 33.023438 13.957031 33.410156 14.214844 33.488281 14.613281 C 33.566406 15.007812 33.308594 15.394531 32.914062 15.476562 L 30.394531 15.980469 C 30.347656 15.992188 30.300781 15.996094 30.25 15.996094 "/></g><g clip-rule="nonzero" clip-path="url(#a7c36d7169)"><path style=" stroke:none;fill-rule:nonzero;fill:#faa624;fill-opacity:1;" d="M 32.738281 25.597656 C 32.664062 25.597656 32.59375 25.585938 32.519531 25.5625 L 30.066406 24.796875 C 29.683594 24.675781 29.464844 24.265625 29.585938 23.878906 C 29.707031 23.492188 30.117188 23.277344 30.503906 23.398438 L 32.953125 24.164062 C 33.339844 24.28125 33.554688 24.695312 33.4375 25.082031 C 33.339844 25.394531 33.050781 25.597656 32.738281 25.597656 "/></g></g></svg>