<svg xmlns="http://www.w3.org/2000/svg" xmlns:xlink="http://www.w3.org/1999/xlink" width="48" zoomAndPan="magnify" viewBox="0 0 36 36.000001" height="48" preserveAspectRatio="xMidYMid meet" version="1.2"><defs><clipPath id="047f3b0626"><path d="M 20 12 L 33.640625 12 L 33.640625 25 L 20 25 Z M 20 12 "/></clipPath><clipPath id="67bd4d2aac"><path d="M 19 11 L 33.640625 11 L 33.640625 25 L 19 25 Z M 19 11 "/></clipPath><clipPath id="51aca61464"><path d="M 10 21 L 26 21 L 26 29.191406 L 10 29.191406 Z M 10 21 "/></clipPath><clipPath id="8676c39c47"><path d="M 2.261719 6 L 8 6 L 8 17 L 2.261719 17 Z M 2.261719 6 "/></clipPath><clipPath id="cb369b68e6"><path d="M 2.261719 6 L 9 6 L 9 17 L 2.261719 17 Z M 2.261719 6 "/></clipPath><clipPath id="777a131ea9"><path d="M 5 5.839844 L 9 5.839844 L 9 9 L 5 9 Z M 5 5.839844 "/></clipPath><clipPath id="5dc31287eb"><path d="M 14 5.839844 L 17 5.839844 L 17 9 L 14 9 Z M 14 5.839844 "/></clipPath></defs><g id="268aed77d8"><g clip-rule="nonzero" clip-path="url(#047f3b0626)"><path style=" stroke:none;fill-rule:nonzero;fill:#d93022;fill-opacity:1;" d="M 29.644531 22.898438 C 29.957031 22.519531 32.367188 18.574219 32.699219 18.035156 C 33.109375 17.378906 33.375 16.671875 33.375 15.886719 C 33.378906 14.765625 32.871094 13.679688 32.007812 12.972656 C 31.082031 12.214844 29.828125 11.9375 28.671875 12.25 C 27.933594 12.445312 27.261719 12.875 26.769531 13.464844 C 26.011719 12.554688 24.835938 12.050781 23.660156 12.128906 C 22.480469 12.203125 21.386719 12.855469 20.75 13.851562 C 20.15625 14.792969 20.003906 15.980469 20.347656 17.039062 C 20.515625 17.554688 20.816406 18 21.101562 18.457031 C 21.863281 19.6875 23.523438 22.367188 23.589844 22.472656 C 23.9375 23.035156 24.433594 23.5 25.015625 23.8125 C 26.210938 24.449219 27.691406 24.378906 28.824219 23.636719 C 29.128906 23.429688 29.410156 23.183594 29.644531 22.898438 C 29.652344 22.890625 29.601562 22.949219 29.644531 22.898438 "/></g><g clip-rule="nonzero" clip-path="url(#67bd4d2aac)"><path style="fill:none;stroke-width:30;stroke-linecap:round;stroke-linejoin:round;stroke:#24578f;stroke-opacity:1;stroke-miterlimit:10;" d="M 2918.861945 1759.250922 C 2940.252724 1785.099432 3105.229102 2054.243706 3127.956804 2091.017874 C 3156.0322 2135.786426 3174.214362 2184.019212 3174.214362 2237.581587 C 3174.481746 2314.061198 3139.721732 2388.142493 3080.629706 2436.375279 C 3017.259526 2488.072298 2931.429028 2506.992341 2852.283148 2485.673982 C 2801.747434 2472.350009 2755.757261 2443.037266 2722.066785 2402.798864 C 2670.194147 2464.888583 2589.711344 2499.264436 2509.228541 2493.934846 C 2428.478352 2488.871736 2353.610628 2444.369663 2310.026917 2376.417396 C 2269.384439 2312.195842 2258.956434 2231.18608 2282.48629 2158.970141 C 2293.983834 2123.79485 2314.572458 2093.416189 2334.091543 2062.23809 C 2386.231565 1978.297054 2499.870075 1795.492132 2504.415615 1788.297186 C 2528.212856 1749.924141 2562.170717 1718.213083 2602.011042 1696.894724 C 2683.830769 1653.458569 2785.169581 1658.2552 2862.711152 1708.886301 C 2883.567161 1723.009713 2902.818862 1739.79792 2918.861945 1759.250922 C 2919.396715 1759.783881 2915.920713 1755.786689 2918.861945 1759.250922 Z M 2918.861945 1759.250922 " transform="matrix(0.0146091,0,0,-0.0146587,-12.997412,48.686817)"/></g><path style="fill:none;stroke-width:30;stroke-linecap:round;stroke-linejoin:round;stroke:#ffffff;stroke-opacity:1;stroke-miterlimit:10;" d="M 2885.438854 1786.431829 L 3107.902949 2149.909839 C 3107.902949 2149.909839 3174.214362 2377.483314 2954.15673 2448.366855 " transform="matrix(0.0146091,0,0,-0.0146587,-12.997412,48.686817)"/><path style="fill:none;stroke-width:30;stroke-linecap:round;stroke-linejoin:round;stroke:#ffffff;stroke-opacity:1;stroke-miterlimit:10;" d="M 2488.105147 2448.366855 C 2488.105147 2448.366855 2608.69566 2494.467805 2692.119695 2374.28556 " transform="matrix(0.0146091,0,0,-0.0146587,-12.997412,48.686817)"/><path style=" stroke:none;fill-rule:nonzero;fill:#a2bac5;fill-opacity:1;" d="M 15.292969 18.183594 L 7.324219 18.183594 L 7.324219 17.191406 L 15.292969 17.191406 L 15.292969 18.183594 "/><path style="fill:none;stroke-width:30;stroke-linecap:round;stroke-linejoin:round;stroke:#24578f;stroke-opacity:1;stroke-miterlimit:10;" d="M 1936.490451 2080.891654 L 1391.025604 2080.891654 L 1391.025604 2148.577441 L 1936.490451 2148.577441 Z M 1936.490451 2080.891654 " transform="matrix(0.0146091,0,0,-0.0146587,-12.997412,48.686817)"/><path style=" stroke:none;fill-rule:nonzero;fill:#72c3ee;fill-opacity:1;" d="M 18.082031 28.980469 C 13.890625 28.980469 10.484375 25.5625 10.484375 21.359375 L 12.054688 21.359375 C 12.054688 24.691406 14.757812 27.402344 18.082031 27.402344 C 21.402344 27.402344 24.105469 24.691406 24.105469 21.359375 L 25.675781 21.359375 C 25.675781 25.5625 22.269531 28.980469 18.082031 28.980469 "/><g clip-rule="nonzero" clip-path="url(#51aca61464)"><path style="fill:none;stroke-width:30;stroke-linecap:round;stroke-linejoin:round;stroke:#24578f;stroke-opacity:1;stroke-miterlimit:10;" d="M 2127.403147 1344.342373 C 1840.499333 1344.342373 1607.339849 1577.511918 1607.339849 1864.243837 L 1714.828511 1864.243837 C 1714.828511 1636.936842 1899.858743 1452.000083 2127.403147 1452.000083 C 2354.680167 1452.000083 2539.7104 1636.936842 2539.7104 1864.243837 L 2647.199061 1864.243837 C 2647.199061 1577.511918 2414.039577 1344.342373 2127.403147 1344.342373 Z M 2127.403147 1344.342373 " transform="matrix(0.0146091,0,0,-0.0146587,-12.997412,48.686817)"/></g><g clip-rule="nonzero" clip-path="url(#8676c39c47)"><path style=" stroke:none;fill-rule:nonzero;fill:#a2bac5;fill-opacity:1;" d="M 4.597656 10.832031 C 4.082031 9.933594 3.980469 9.121094 4.3125 8.546875 C 4.644531 7.972656 5.394531 7.65625 6.425781 7.65625 C 6.804688 7.65625 7.113281 7.347656 7.113281 6.96875 C 7.113281 6.585938 6.804688 6.277344 6.425781 6.277344 C 4.882812 6.277344 3.710938 6.839844 3.125 7.859375 C 2.539062 8.878906 2.640625 10.179688 3.410156 11.519531 L 6.367188 16.65625 L 7.949219 16.65625 L 4.597656 10.832031 "/></g><g clip-rule="nonzero" clip-path="url(#cb369b68e6)"><path style="fill:none;stroke-width:30;stroke-linecap:round;stroke-linejoin:round;stroke:#24578f;stroke-opacity:1;stroke-miterlimit:10;" d="M 1204.391063 2582.406033 C 1169.096279 2643.696314 1162.144276 2699.124045 1184.871978 2738.296529 C 1207.59968 2777.469012 1258.937548 2799.05385 1329.527116 2799.05385 C 1355.463435 2799.05385 1376.586828 2820.105729 1376.586828 2845.954238 C 1376.586828 2872.069227 1355.463435 2893.121106 1329.527116 2893.121106 C 1223.910148 2893.121106 1143.694729 2854.748061 1103.58702 2785.196917 C 1063.479311 2715.645773 1070.431314 2626.908106 1123.106105 2535.505645 L 1325.516345 2185.08513 L 1433.80716 2185.08513 Z M 1204.391063 2582.406033 " transform="matrix(0.0146091,0,0,-0.0146587,-12.997412,48.686817)"/></g><path style=" stroke:none;fill-rule:nonzero;fill:#a2bac5;fill-opacity:1;" d="M 19.125 11.519531 C 19.898438 10.179688 20 8.878906 19.414062 7.859375 C 18.828125 6.839844 17.65625 6.277344 16.109375 6.277344 C 15.734375 6.277344 15.425781 6.585938 15.425781 6.96875 C 15.425781 7.347656 15.734375 7.65625 16.109375 7.65625 C 17.144531 7.65625 17.894531 7.972656 18.226562 8.546875 C 18.558594 9.121094 18.453125 9.933594 17.9375 10.832031 L 14.589844 16.65625 L 16.175781 16.65625 L 19.125 11.519531 "/><path style="fill:none;stroke-width:30;stroke-linecap:round;stroke-linejoin:round;stroke:#24578f;stroke-opacity:1;stroke-miterlimit:10;" d="M 2198.79487 2535.505645 C 2251.737046 2626.908106 2258.689049 2715.645773 2218.58134 2785.196917 C 2178.473631 2854.748061 2098.258212 2893.121106 1992.373859 2893.121106 C 1966.704925 2893.121106 1945.581532 2872.069227 1945.581532 2845.954238 C 1945.581532 2820.105729 1966.704925 2799.05385 1992.373859 2799.05385 C 2063.230812 2799.05385 2114.56868 2777.469012 2137.296382 2738.296529 C 2160.024084 2699.124045 2152.804697 2643.696314 2117.509912 2582.406033 L 1888.3612 2185.08513 L 1996.9194 2185.08513 Z M 2198.79487 2535.505645 " transform="matrix(0.0146091,0,0,-0.0146587,-12.997412,48.686817)"/><path style=" stroke:none;fill-rule:nonzero;fill:#72c3ee;fill-opacity:1;" d="M 14.589844 16.65625 L 13.097656 19.246094 C 12.582031 20.144531 11.929688 20.640625 11.269531 20.640625 C 10.605469 20.640625 9.957031 20.144531 9.441406 19.246094 L 7.949219 16.65625 L 6.367188 16.65625 L 8.253906 19.9375 C 9.027344 21.277344 10.097656 22.015625 11.269531 22.015625 C 12.441406 22.015625 13.511719 21.277344 14.285156 19.9375 L 16.175781 16.65625 L 14.589844 16.65625 "/><path style="fill:none;stroke-width:30;stroke-linecap:round;stroke-linejoin:round;stroke:#24578f;stroke-opacity:1;stroke-miterlimit:10;" d="M 1888.3612 2185.08513 L 1786.220233 2008.409235 C 1750.925449 1947.118955 1706.272199 1913.276061 1661.08418 1913.276061 C 1615.628776 1913.276061 1571.242911 1947.118955 1535.948127 2008.409235 L 1433.80716 2185.08513 L 1325.516345 2185.08513 L 1454.663169 1961.242368 C 1507.605346 1869.839906 1580.868761 1819.475285 1661.08418 1819.475285 C 1741.299599 1819.475285 1814.563014 1869.839906 1867.505191 1961.242368 L 1996.9194 2185.08513 Z M 1888.3612 2185.08513 " transform="matrix(0.0146091,0,0,-0.0146587,-12.997412,48.686817)"/><path style=" stroke:none;fill-rule:nonzero;fill:#a2bac5;fill-opacity:1;" d="M 27.882812 21.359375 C 27.882812 22.695312 26.800781 23.78125 25.46875 23.78125 C 24.136719 23.78125 23.054688 22.695312 23.054688 21.359375 C 23.054688 20.019531 24.136719 18.933594 25.46875 18.933594 C 26.800781 18.933594 27.882812 20.019531 27.882812 21.359375 "/><path style="fill:none;stroke-width:30;stroke-linecap:round;stroke-linejoin:round;stroke:#24578f;stroke-opacity:1;stroke-miterlimit:10;" d="M 2798.271433 1864.243837 C 2798.271433 1773.107855 2724.205863 1699.02656 2633.02767 1699.02656 C 2541.849477 1699.02656 2467.783908 1773.107855 2467.783908 1864.243837 C 2467.783908 1955.646299 2541.849477 2029.727594 2633.02767 2029.727594 C 2724.205863 2029.727594 2798.271433 1955.646299 2798.271433 1864.243837 Z M 2798.271433 1864.243837 " transform="matrix(0.0146091,0,0,-0.0146587,-12.997412,48.686817)"/><path style=" stroke:none;fill-rule:nonzero;fill:#72c3ee;fill-opacity:1;" d="M 26.507812 21.359375 C 26.507812 21.933594 26.042969 22.402344 25.46875 22.402344 C 24.894531 22.402344 24.429688 21.933594 24.429688 21.359375 C 24.429688 20.78125 24.894531 20.316406 25.46875 20.316406 C 26.042969 20.316406 26.507812 20.78125 26.507812 21.359375 "/><path style="fill:none;stroke-width:30;stroke-linecap:round;stroke-linejoin:round;stroke:#24578f;stroke-opacity:1;stroke-miterlimit:10;" d="M 2704.152008 1864.243837 C 2704.152008 1825.071354 2672.333225 1793.093816 2633.02767 1793.093816 C 2593.722115 1793.093816 2561.903332 1825.071354 2561.903332 1864.243837 C 2561.903332 1903.6828 2593.722115 1935.393858 2633.02767 1935.393858 C 2672.333225 1935.393858 2704.152008 1903.6828 2704.152008 1864.243837 Z M 2704.152008 1864.243837 " transform="matrix(0.0146091,0,0,-0.0146587,-12.997412,48.686817)"/><path style="fill:none;stroke-width:30;stroke-linecap:round;stroke-linejoin:round;stroke:#ffffff;stroke-opacity:1;stroke-miterlimit:10;" d="M 2633.02767 1902.350403 C 2653.883679 1902.350403 2670.996302 1885.295716 2670.996302 1864.243837 C 2670.996302 1843.458438 2653.883679 1826.403751 2633.02767 1826.403751 " transform="matrix(0.0146091,0,0,-0.0146587,-12.997412,48.686817)"/><path style=" stroke:none;fill-rule:nonzero;fill:#72c3ee;fill-opacity:1;" d="M 8.441406 7.402344 C 8.441406 7.617188 8.242188 7.792969 7.992188 7.792969 L 6.421875 7.792969 C 6.171875 7.792969 5.972656 7.617188 5.972656 7.402344 L 5.972656 6.453125 C 5.972656 6.238281 6.171875 6.0625 6.421875 6.0625 L 7.992188 6.0625 C 8.242188 6.0625 8.441406 6.238281 8.441406 6.453125 L 8.441406 7.402344 "/><g clip-rule="nonzero" clip-path="url(#777a131ea9)"><path style="fill:none;stroke-width:30;stroke-linecap:round;stroke-linejoin:round;stroke:#24578f;stroke-opacity:1;stroke-miterlimit:10;" d="M 1467.497636 2816.375016 C 1467.497636 2801.718645 1453.861015 2789.727068 1436.748392 2789.727068 L 1329.259731 2789.727068 C 1312.147109 2789.727068 1298.510487 2801.718645 1298.510487 2816.375016 L 1298.510487 2881.129529 C 1298.510487 2895.785901 1312.147109 2907.777477 1329.259731 2907.777477 L 1436.748392 2907.777477 C 1453.861015 2907.777477 1467.497636 2895.785901 1467.497636 2881.129529 Z M 1467.497636 2816.375016 " transform="matrix(0.0146091,0,0,-0.0146587,-12.997412,48.686817)"/></g><path style=" stroke:none;fill-rule:nonzero;fill:#72c3ee;fill-opacity:1;" d="M 16.75 7.402344 C 16.75 7.617188 16.550781 7.792969 16.300781 7.792969 L 14.730469 7.792969 C 14.480469 7.792969 14.28125 7.617188 14.28125 7.402344 L 14.28125 6.453125 C 14.28125 6.238281 14.480469 6.0625 14.730469 6.0625 L 16.300781 6.0625 C 16.550781 6.0625 16.75 6.238281 16.75 6.453125 L 16.75 7.402344 "/><g clip-rule="nonzero" clip-path="url(#5dc31287eb)"><path style="fill:none;stroke-width:30;stroke-linecap:round;stroke-linejoin:round;stroke:#24578f;stroke-opacity:1;stroke-miterlimit:10;" d="M 2036.224955 2816.375016 C 2036.224955 2801.718645 2022.588334 2789.727068 2005.475711 2789.727068 L 1897.98705 2789.727068 C 1880.874427 2789.727068 1867.237806 2801.718645 1867.237806 2816.375016 L 1867.237806 2881.129529 C 1867.237806 2895.785901 1880.874427 2907.777477 1897.98705 2907.777477 L 2005.475711 2907.777477 C 2022.588334 2907.777477 2036.224955 2895.785901 2036.224955 2881.129529 Z M 2036.224955 2816.375016 " transform="matrix(0.0146091,0,0,-0.0146587,-12.997412,48.686817)"/></g><path style="fill:none;stroke-width:30;stroke-linecap:round;stroke-linejoin:round;stroke:#ffffff;stroke-opacity:1;stroke-miterlimit:10;" d="M 2680.354767 1989.489192 C 2680.354767 1989.489192 2787.308659 1953.780942 2759.233262 1839.194766 " transform="matrix(0.0146091,0,0,-0.0146587,-12.997412,48.686817)"/><path style="fill:none;stroke-width:30;stroke-linecap:round;stroke-linejoin:round;stroke:#ffffff;stroke-opacity:1;stroke-miterlimit:10;" d="M 2561.903332 1643.332349 C 2561.903332 1643.332349 2475.27068 1459.461508 2214.0358 1388.311488 " transform="matrix(0.0146091,0,0,-0.0146587,-12.997412,48.686817)"/><path style="fill:none;stroke-width:30;stroke-linecap:round;stroke-linejoin:round;stroke:#ffffff;stroke-opacity:1;stroke-miterlimit:10;" d="M 2000.128016 2880.330091 L 2000.128016 2821.171647 L 1935.688297 2821.171647 " transform="matrix(0.0146091,0,0,-0.0146587,-12.997412,48.686817)"/><path style="fill:none;stroke-width:30;stroke-linecap:round;stroke-linejoin:round;stroke:#ffffff;stroke-opacity:1;stroke-miterlimit:10;" d="M 2066.172045 2850.750869 C 2066.172045 2850.750869 2219.11611 2830.498428 2206.014258 2660.218041 " transform="matrix(0.0146091,0,0,-0.0146587,-12.997412,48.686817)"/><path style="fill:none;stroke-width:30;stroke-linecap:round;stroke-linejoin:round;stroke:#ffffff;stroke-opacity:1;stroke-miterlimit:10;" d="M 1915.634442 2114.734548 L 1821.515017 1959.110532 C 1821.515017 1959.110532 1734.882365 1849.320986 1649.586637 1872.504701 " transform="matrix(0.0146091,0,0,-0.0146587,-12.997412,48.686817)"/></g></svg>