<svg xmlns="http://www.w3.org/2000/svg" xmlns:xlink="http://www.w3.org/1999/xlink" width="48" zoomAndPan="magnify" viewBox="0 0 36 36.000001" height="48" preserveAspectRatio="xMidYMid meet" version="1.2"><defs><clipPath id="3aa5747e36"><path d="M 6 2.253906 L 15 2.253906 L 15 25 L 6 25 Z M 6 2.253906 "/></clipPath><clipPath id="9f7130b1fa"><path d="M 4 2.253906 L 17 2.253906 L 17 27 L 4 27 Z M 4 2.253906 "/></clipPath><clipPath id="26a8658bdb"><path d="M 4 2.253906 L 12 2.253906 L 12 25 L 4 25 Z M 4 2.253906 "/></clipPath><clipPath id="7f8943ac75"><path d="M 7 2.253906 L 12 2.253906 L 12 25 L 7 25 Z M 7 2.253906 "/></clipPath><clipPath id="0f09294875"><path d="M 3.988281 2.253906 L 13 2.253906 L 13 25 L 3.988281 25 Z M 3.988281 2.253906 "/></clipPath><clipPath id="a8b60c011f"><path d="M 19 6 L 32.449219 6 L 32.449219 29 L 19 29 Z M 19 6 "/></clipPath><clipPath id="243aed93b5"><path d="M 17 4 L 32.449219 4 L 32.449219 31 L 17 31 Z M 17 4 "/></clipPath><clipPath id="ff00f33faf"><path d="M 15 28 L 21 28 L 21 32.902344 L 15 32.902344 Z M 15 28 "/></clipPath><clipPath id="3342efcff7"><path d="M 15 28 L 20 28 L 20 32.902344 L 15 32.902344 Z M 15 28 "/></clipPath><clipPath id="9fa005f1f1"><path d="M 14 27 L 20 27 L 20 32.902344 L 14 32.902344 Z M 14 27 "/></clipPath></defs><g id="97f7db185f"><g clip-rule="nonzero" clip-path="url(#3aa5747e36)"><path style=" stroke:none;fill-rule:nonzero;fill:#000000;fill-opacity:1;" d="M 13.113281 24.660156 L 10.125 24.457031 L 6.96875 3.421875 L 14.449219 2.472656 Z M 13.113281 24.660156 "/></g><g clip-rule="nonzero" clip-path="url(#9f7130b1fa)"><path style="fill:none;stroke-width:1.9;stroke-linecap:square;stroke-linejoin:miter;stroke:#000000;stroke-opacity:1;stroke-miterlimit:4;" d="M -45.473216 480.046628 L -60.845411 478.996286 L -77.081664 370.225281 L -38.60094 365.316952 Z M -45.473216 480.046628 " transform="matrix(0.194395,0,0,0.193389,21.953057,-68.17576)"/></g><g clip-rule="nonzero" clip-path="url(#26a8658bdb)"><path style=" stroke:none;fill-rule:nonzero;fill:#ffc35b;fill-opacity:1;" d="M 11.839844 24.761719 L 7.355469 24.726562 L 4.199219 3.691406 L 11.679688 2.746094 Z M 11.839844 24.761719 "/></g><g clip-rule="nonzero" clip-path="url(#7f8943ac75)"><path style=" stroke:none;fill-rule:nonzero;fill:#ffb433;fill-opacity:1;" d="M 7.355469 24.726562 L 11.679688 2.746094 L 11.839844 24.761719 Z M 7.355469 24.726562 "/></g><g clip-rule="nonzero" clip-path="url(#0f09294875)"><path style=" stroke:none;fill-rule:nonzero;fill:#000000;fill-opacity:1;" d="M 11.863281 2.535156 L 3.988281 3.535156 L 7.195312 24.910156 L 12.027344 24.945312 L 12.027344 24.761719 Z M 11.496094 2.953125 L 11.65625 24.574219 L 7.515625 24.542969 L 4.410156 3.851562 Z M 11.496094 2.953125 "/></g><path style=" stroke:none;fill-rule:nonzero;fill:#000000;fill-opacity:1;" d="M 12.546875 29.445312 C 12.398438 29.695312 12.210938 29.910156 11.976562 30.082031 C 11.746094 30.257812 11.488281 30.382812 11.207031 30.457031 C 10.921875 30.53125 10.636719 30.546875 10.347656 30.507812 C 10.058594 30.46875 9.789062 30.375 9.535156 30.230469 C 9.285156 30.082031 9.070312 29.894531 8.894531 29.660156 C 8.71875 29.429688 8.59375 29.175781 8.519531 28.894531 C 8.445312 28.613281 8.429688 28.328125 8.46875 28.039062 C 8.507812 27.753906 8.601562 27.484375 8.75 27.234375 C 8.894531 26.984375 9.085938 26.769531 9.320312 26.59375 C 9.550781 26.417969 9.808594 26.292969 10.089844 26.222656 C 10.375 26.148438 10.660156 26.128906 10.949219 26.171875 C 11.238281 26.210938 11.507812 26.304688 11.757812 26.449219 C 12.011719 26.597656 12.226562 26.785156 12.402344 27.015625 C 12.578125 27.246094 12.703125 27.503906 12.777344 27.785156 C 12.851562 28.066406 12.867188 28.351562 12.828125 28.636719 C 12.789062 28.925781 12.695312 29.195312 12.546875 29.445312 Z M 12.546875 29.445312 "/><path style=" stroke:none;fill-rule:nonzero;fill:#ffb433;fill-opacity:1;" d="M 11.605469 29.359375 C 11.46875 29.59375 11.292969 29.789062 11.078125 29.949219 C 10.863281 30.113281 10.628906 30.226562 10.367188 30.296875 C 10.105469 30.363281 9.839844 30.378906 9.574219 30.34375 C 9.308594 30.304688 9.058594 30.21875 8.824219 30.085938 C 8.59375 29.949219 8.394531 29.773438 8.230469 29.5625 C 8.070312 29.347656 7.953125 29.109375 7.886719 28.851562 C 7.816406 28.59375 7.800781 28.328125 7.839844 28.0625 C 7.875 27.796875 7.960938 27.550781 8.097656 27.316406 C 8.234375 27.085938 8.410156 26.890625 8.625 26.726562 C 8.839844 26.566406 9.078125 26.449219 9.335938 26.382812 C 9.597656 26.316406 9.863281 26.300781 10.128906 26.335938 C 10.394531 26.371094 10.644531 26.457031 10.878906 26.59375 C 11.109375 26.730469 11.308594 26.902344 11.472656 27.117188 C 11.632812 27.332031 11.75 27.566406 11.816406 27.828125 C 11.886719 28.085938 11.902344 28.347656 11.867188 28.613281 C 11.828125 28.878906 11.742188 29.128906 11.605469 29.359375 Z M 11.605469 29.359375 "/><path style=" stroke:none;fill-rule:nonzero;fill:#000000;fill-opacity:1;" d="M 10.78125 26.304688 C 9.6875 25.667969 8.273438 26.035156 7.632812 27.125 C 6.992188 28.214844 7.359375 29.621094 8.457031 30.257812 C 9.550781 30.894531 10.964844 30.527344 11.605469 29.4375 C 12.246094 28.347656 11.875 26.941406 10.78125 26.304688 Z M 10.507812 26.769531 C 11.351562 27.257812 11.632812 28.328125 11.140625 29.167969 C 10.648438 30.007812 9.570312 30.285156 8.726562 29.796875 C 7.886719 29.304688 7.605469 28.234375 8.097656 27.394531 C 8.589844 26.558594 9.664062 26.277344 10.507812 26.769531 Z M 10.507812 26.769531 "/><g clip-rule="nonzero" clip-path="url(#a8b60c011f)"><path style=" stroke:none;fill-rule:nonzero;fill:#000000;fill-opacity:1;" d="M 21.738281 28.082031 L 19.101562 26.664062 L 24.984375 6.21875 L 32.1875 8.4375 Z M 21.738281 28.082031 "/></g><g clip-rule="nonzero" clip-path="url(#243aed93b5)"><path style="fill:none;stroke-width:1.9;stroke-linecap:square;stroke-linejoin:miter;stroke:#000000;stroke-opacity:1;stroke-miterlimit:4;" d="M -1.104841 497.740852 L -14.668542 490.408657 L 15.593583 384.687684 L 52.647606 396.160651 Z M -1.104841 497.740852 " transform="matrix(0.194395,0,0,0.193389,21.953057,-68.17576)"/></g><path style=" stroke:none;fill-rule:nonzero;fill:#ffc35b;fill-opacity:1;" d="M 20.539062 27.648438 L 16.46875 25.769531 L 22.351562 5.324219 L 29.554688 7.542969 Z M 20.539062 27.648438 "/><path style=" stroke:none;fill-rule:nonzero;fill:#ffb433;fill-opacity:1;" d="M 16.46875 25.769531 L 29.554688 7.542969 L 20.539062 27.648438 Z M 16.46875 25.769531 "/><path style=" stroke:none;fill-rule:nonzero;fill:#000000;fill-opacity:1;" d="M 29.808594 7.429688 L 22.226562 5.09375 L 16.246094 25.871094 L 20.628906 27.894531 L 20.707031 27.726562 Z M 29.300781 7.65625 L 20.445312 27.40625 L 16.691406 25.671875 L 22.476562 5.554688 Z M 29.300781 7.65625 "/><g clip-rule="nonzero" clip-path="url(#ff00f33faf)"><path style=" stroke:none;fill-rule:nonzero;fill:#000000;fill-opacity:1;" d="M 19.230469 32.203125 C 18.992188 32.371094 18.730469 32.488281 18.445312 32.550781 C 18.164062 32.617188 17.875 32.621094 17.589844 32.574219 C 17.300781 32.523438 17.035156 32.421875 16.785156 32.265625 C 16.539062 32.113281 16.332031 31.914062 16.164062 31.679688 C 15.996094 31.441406 15.878906 31.179688 15.816406 30.898438 C 15.75 30.613281 15.746094 30.328125 15.792969 30.042969 C 15.84375 29.757812 15.945312 29.492188 16.101562 29.246094 C 16.257812 29 16.457031 28.792969 16.695312 28.625 C 16.933594 28.460938 17.195312 28.34375 17.480469 28.28125 C 17.761719 28.214844 18.050781 28.207031 18.335938 28.257812 C 18.625 28.308594 18.890625 28.410156 19.136719 28.566406 C 19.386719 28.71875 19.59375 28.917969 19.761719 29.152344 C 19.929688 29.390625 20.046875 29.652344 20.109375 29.933594 C 20.171875 30.21875 20.179688 30.503906 20.132812 30.789062 C 20.082031 31.074219 19.980469 31.339844 19.824219 31.585938 C 19.667969 31.832031 19.46875 32.039062 19.230469 32.203125 Z M 19.230469 32.203125 "/></g><g clip-rule="nonzero" clip-path="url(#3342efcff7)"><path style=" stroke:none;fill-rule:nonzero;fill:#ffb433;fill-opacity:1;" d="M 18.410156 31.738281 C 18.1875 31.894531 17.949219 32 17.683594 32.058594 C 17.421875 32.121094 17.15625 32.125 16.890625 32.082031 C 16.625 32.035156 16.378906 31.941406 16.152344 31.796875 C 15.925781 31.652344 15.730469 31.472656 15.578125 31.253906 C 15.421875 31.035156 15.3125 30.792969 15.253906 30.53125 C 15.195312 30.269531 15.1875 30.007812 15.234375 29.742188 C 15.28125 29.480469 15.375 29.234375 15.519531 29.007812 C 15.664062 28.78125 15.84375 28.589844 16.066406 28.433594 C 16.285156 28.28125 16.527344 28.175781 16.789062 28.113281 C 17.054688 28.054688 17.316406 28.050781 17.582031 28.09375 C 17.847656 28.140625 18.097656 28.234375 18.324219 28.378906 C 18.550781 28.523438 18.742188 28.703125 18.898438 28.921875 C 19.054688 29.140625 19.160156 29.382812 19.21875 29.644531 C 19.28125 29.90625 19.285156 30.167969 19.242188 30.429688 C 19.195312 30.695312 19.101562 30.941406 18.957031 31.167969 C 18.8125 31.394531 18.628906 31.585938 18.410156 31.738281 Z M 18.410156 31.738281 "/></g><g clip-rule="nonzero" clip-path="url(#9fa005f1f1)"><path style=" stroke:none;fill-rule:nonzero;fill:#000000;fill-opacity:1;" d="M 18.929688 28.617188 C 18.199219 27.585938 16.757812 27.339844 15.722656 28.066406 C 14.683594 28.796875 14.4375 30.230469 15.167969 31.261719 C 15.898438 32.292969 17.339844 32.539062 18.375 31.8125 C 19.414062 31.082031 19.664062 29.648438 18.929688 28.617188 Z M 18.488281 28.929688 C 19.054688 29.722656 18.863281 30.8125 18.066406 31.371094 C 17.269531 31.933594 16.171875 31.746094 15.609375 30.949219 C 15.046875 30.15625 15.234375 29.066406 16.035156 28.507812 C 16.832031 27.945312 17.925781 28.132812 18.488281 28.929688 Z M 18.488281 28.929688 "/></g></g></svg>