<svg xmlns="http://www.w3.org/2000/svg" xmlns:xlink="http://www.w3.org/1999/xlink" width="48" zoomAndPan="magnify" viewBox="0 0 36 36.000001" height="48" preserveAspectRatio="xMidYMid meet" version="1.2"><defs><clipPath id="cba3f137a4"><path d="M 11 24 L 29.636719 24 L 29.636719 32 L 11 32 Z M 11 24 "/></clipPath><clipPath id="b155634439"><path d="M 11 11 L 29.636719 11 L 29.636719 19 L 11 19 Z M 11 11 "/></clipPath><clipPath id="4d272dccd2"><path d="M 11 17 L 29.636719 17 L 29.636719 25 L 11 25 Z M 11 17 "/></clipPath><clipPath id="5bca277f3b"><path d="M 6.285156 20 L 15 20 L 15 33 L 6.285156 33 Z M 6.285156 20 "/></clipPath><clipPath id="8e2723ab42"><path d="M 6.285156 26 L 8 26 L 8 32 L 6.285156 32 Z M 6.285156 26 "/></clipPath><clipPath id="c3dc6db196"><path d="M 6.285156 24 L 8 24 L 8 27 L 6.285156 27 Z M 6.285156 24 "/></clipPath></defs><g id="5663326c42"><path style=" stroke:none;fill-rule:nonzero;fill:#b0432d;fill-opacity:1;" d="M 20.28125 5.800781 C 20.5625 5.863281 20.0625 4.515625 20.933594 3.410156 C 20.738281 1.949219 20.304688 2.375 20.0625 2.875 C 19.820312 3.375 19.332031 5.585938 20.28125 5.800781 Z M 20.28125 5.800781 "/><path style=" stroke:none;fill-rule:nonzero;fill:#e94b59;fill-opacity:1;" d="M 19.902344 11.796875 C 19.902344 11.796875 19.265625 12.757812 18.402344 12.507812 C 17.539062 12.257812 15.609375 8.371094 16.34375 6.585938 C 17.082031 4.800781 19.65625 5.195312 19.902344 5.300781 C 20.148438 5.410156 23.582031 3.730469 24.40625 6.445312 C 24.675781 7.445312 24.09375 8.835938 23.683594 9.71875 C 23.296875 10.5625 22.867188 11.578125 22.105469 12.144531 C 21.8125 12.363281 21.316406 12.683594 20.929688 12.652344 C 20.488281 12.613281 20.171875 12.097656 19.902344 11.796875 Z M 19.902344 11.796875 "/><path style="fill:none;stroke-width:5;stroke-linecap:round;stroke-linejoin:round;stroke:#b43c44;stroke-opacity:1;stroke-miterlimit:10;" d="M 212.110208 168.644439 C 212.110208 168.644439 201.279258 149.890781 207.627542 141.026346 " transform="matrix(0.150754,0,0,0.15247,-14.164031,-14.881229)"/><path style="fill:none;stroke-width:5;stroke-linecap:round;stroke-linejoin:round;stroke:#ed6c71;stroke-opacity:1;stroke-miterlimit:10;" d="M 241.493694 135.671818 C 241.493694 135.671818 250.070355 133.314801 251.365923 141.026346 " transform="matrix(0.150754,0,0,0.15247,-14.164031,-14.881229)"/><path style=" stroke:none;fill-rule:nonzero;fill:#fee2bf;fill-opacity:1;" d="M 12.054688 30.285156 L 12.671875 29.386719 C 12.671875 29.386719 12.101562 29.730469 12.058594 29.382812 L 12.882812 28.402344 C 12.882812 28.402344 12.226562 28.589844 12.144531 28.394531 L 13.011719 27.570312 C 13.011719 27.570312 12.558594 27.765625 12.171875 27.671875 L 13.015625 26.773438 C 13.015625 26.773438 12.484375 26.867188 12.175781 26.769531 L 13.167969 25.828125 C 13.167969 25.828125 12.859375 25.921875 12.46875 25.820312 C 12.082031 25.722656 12.449219 25.292969 12.449219 25.292969 C 12.449219 25.292969 26.761719 25.003906 28.117188 26.40625 C 29.476562 27.808594 28.203125 30.203125 28.203125 30.203125 C 28.203125 30.203125 13.085938 31.625 12.054688 30.285156 Z M 12.054688 30.285156 "/><g clip-rule="nonzero" clip-path="url(#cba3f137a4)"><path style=" stroke:none;fill-rule:nonzero;fill:#de5963;fill-opacity:1;" d="M 13.15625 24.238281 C 13.15625 24.238281 28.339844 24.324219 28.746094 24.949219 C 29.152344 25.570312 29.644531 30.316406 29.167969 30.699219 C 28.6875 31.085938 12.453125 31.671875 11.554688 30.578125 C 11.234375 29.570312 27.382812 30.03125 27.835938 29.957031 C 28.046875 29.257812 28.019531 26.894531 27.695312 26.429688 C 27.371094 25.960938 11.46875 25.464844 11.347656 25.117188 C 11.226562 24.765625 11.3125 24.34375 11.597656 24.226562 C 11.886719 24.113281 13.15625 24.238281 13.15625 24.238281 Z M 13.15625 24.238281 "/></g><path style="fill:none;stroke-width:5;stroke-linecap:round;stroke-linejoin:round;stroke:#e3c0a8;stroke-opacity:1;stroke-miterlimit:10;" d="M 189.178652 267.306104 C 189.178652 267.306104 262.430075 272.225096 264.60663 273.019308 " transform="matrix(0.150754,0,0,0.15247,-14.164031,-14.881229)"/><path style="fill:none;stroke-width:5;stroke-linecap:round;stroke-linejoin:round;stroke:#e3c0a8;stroke-opacity:1;stroke-miterlimit:10;" d="M 183.296772 273.992859 L 227.993874 276.708553 " transform="matrix(0.150754,0,0,0.15247,-14.164031,-14.881229)"/><path style="fill:none;stroke-width:5;stroke-linecap:round;stroke-linejoin:round;stroke:#e3c0a8;stroke-opacity:1;stroke-miterlimit:10;" d="M 207.290695 284.18952 L 255.278539 285.26555 " transform="matrix(0.150754,0,0,0.15247,-14.164031,-14.881229)"/><path style="fill:none;stroke-width:5;stroke-linecap:round;stroke-linejoin:round;stroke:#e3c0a8;stroke-opacity:1;stroke-miterlimit:10;" d="M 188.19402 290.927515 L 222.060172 289.620908 " transform="matrix(0.150754,0,0,0.15247,-14.164031,-14.881229)"/><path style="fill:none;stroke-width:5;stroke-linecap:round;stroke-linejoin:round;stroke:#ee7676;stroke-opacity:1;stroke-miterlimit:10;" d="M 217.992088 261.234223 C 217.992088 261.234223 252.609669 262.668929 260.227609 263.719338 " transform="matrix(0.150754,0,0,0.15247,-14.164031,-14.881229)"/><path style=" stroke:none;fill-rule:nonzero;fill:#fee2bf;fill-opacity:1;" d="M 28.265625 18.082031 L 27.691406 17.15625 C 27.691406 17.15625 28.242188 17.527344 28.300781 17.179688 L 27.523438 16.160156 C 27.523438 16.160156 28.171875 16.378906 28.261719 16.191406 L 27.433594 15.324219 C 27.433594 15.324219 27.875 15.539062 28.269531 15.464844 L 27.464844 14.53125 C 27.464844 14.53125 27.992188 14.648438 28.304688 14.5625 L 27.359375 13.578125 C 27.359375 13.578125 27.660156 13.6875 28.054688 13.605469 C 28.445312 13.523438 28.097656 13.074219 28.097656 13.074219 C 28.097656 13.074219 13.816406 12.125 12.394531 13.460938 C 10.976562 14.800781 12.140625 17.25 12.140625 17.25 C 12.140625 17.25 27.175781 19.371094 28.265625 18.082031 Z M 28.265625 18.082031 "/><g clip-rule="nonzero" clip-path="url(#b155634439)"><path style=" stroke:none;fill-rule:nonzero;fill:#6e8fbc;fill-opacity:1;" d="M 27.4375 11.992188 C 27.4375 11.992188 12.257812 12.011719 11.824219 12.613281 C 11.390625 13.214844 10.695312 17.296875 11.152344 17.703125 C 11.613281 18.109375 27.808594 19.449219 28.75 18.398438 C 29.117188 17.40625 12.964844 17.117188 12.515625 17.019531 C 12.339844 16.316406 12.472656 13.957031 12.816406 13.503906 C 13.164062 13.054688 29.070312 13.296875 29.207031 12.953125 C 29.34375 12.609375 29.277344 12.179688 28.996094 12.050781 C 28.714844 11.925781 27.4375 11.992188 27.4375 11.992188 Z M 27.4375 11.992188 "/></g><path style="fill:none;stroke-width:5;stroke-linecap:round;stroke-linejoin:round;stroke:#e3c0a8;stroke-opacity:1;stroke-miterlimit:10;" d="M 267.534614 186.603885 C 267.534614 186.603885 194.127722 188.16669 191.925256 188.858423 " transform="matrix(0.150754,0,0,0.15247,-14.164031,-14.881229)"/><path style="fill:none;stroke-width:5;stroke-linecap:round;stroke-linejoin:round;stroke:#e3c0a8;stroke-opacity:1;stroke-miterlimit:10;" d="M 273.105557 193.546838 L 228.330721 194.212951 " transform="matrix(0.150754,0,0,0.15247,-14.164031,-14.881229)"/><path style="fill:none;stroke-width:5;stroke-linecap:round;stroke-linejoin:round;stroke:#e3c0a8;stroke-opacity:1;stroke-miterlimit:10;" d="M 248.671141 202.64185 L 200.683297 201.514581 " transform="matrix(0.150754,0,0,0.15247,-14.164031,-14.881229)"/><path style="fill:none;stroke-width:5;stroke-linecap:round;stroke-linejoin:round;stroke:#e3c0a8;stroke-opacity:1;stroke-miterlimit:10;" d="M 267.430968 210.225296 L 233.668462 207.381504 " transform="matrix(0.150754,0,0,0.15247,-14.164031,-14.881229)"/><path style="fill:none;stroke-width:5;stroke-linecap:round;stroke-linejoin:round;stroke:#8ba1cc;stroke-opacity:1;stroke-miterlimit:10;" d="M 239.032114 179.199777 C 239.032114 179.199777 204.388622 179.071678 196.74477 179.763411 " transform="matrix(0.150754,0,0,0.15247,-14.164031,-14.881229)"/><path style=" stroke:none;fill-rule:nonzero;fill:#fee2bf;fill-opacity:1;" d="M 11.789062 23.933594 L 12.410156 23.035156 C 12.410156 23.035156 11.839844 23.378906 11.800781 23.03125 L 12.625 22.050781 C 12.625 22.050781 11.96875 22.238281 11.886719 22.042969 L 12.757812 21.21875 C 12.757812 21.21875 12.304688 21.414062 11.917969 21.320312 L 12.765625 20.425781 C 12.765625 20.425781 12.234375 20.515625 11.925781 20.414062 L 12.917969 19.476562 C 12.917969 19.476562 12.609375 19.570312 12.222656 19.46875 C 11.835938 19.371094 12.203125 18.941406 12.203125 18.941406 C 12.203125 18.941406 26.519531 18.707031 27.871094 20.113281 C 29.222656 21.523438 27.9375 23.910156 27.9375 23.910156 C 27.9375 23.910156 12.820312 25.273438 11.789062 23.933594 Z M 11.789062 23.933594 "/><g clip-rule="nonzero" clip-path="url(#4d272dccd2)"><path style=" stroke:none;fill-rule:nonzero;fill:#3a70a6;fill-opacity:1;" d="M 12.914062 17.890625 C 12.914062 17.890625 28.085938 18.167969 28.488281 18.792969 C 28.890625 19.417969 29.378906 24.03125 28.902344 24.414062 C 28.421875 24.792969 12.183594 25.320312 11.292969 24.226562 C 10.972656 23.214844 27.121094 23.734375 27.574219 23.664062 C 27.785156 22.96875 27.769531 20.605469 27.445312 20.136719 C 27.121094 19.667969 11.222656 19.109375 11.101562 18.761719 C 10.984375 18.410156 11.070312 17.984375 11.359375 17.871094 C 11.644531 17.757812 12.914062 17.890625 12.914062 17.890625 Z M 12.914062 17.890625 "/></g><path style="fill:none;stroke-width:5;stroke-linecap:round;stroke-linejoin:round;stroke:#e3c0a8;stroke-opacity:1;stroke-miterlimit:10;" d="M 187.546236 225.674007 C 187.546236 225.674007 260.771748 230.900436 262.948302 231.694649 " transform="matrix(0.150754,0,0,0.15247,-14.164031,-14.881229)"/><path style="fill:none;stroke-width:5;stroke-linecap:round;stroke-linejoin:round;stroke:#e3c0a8;stroke-opacity:1;stroke-miterlimit:10;" d="M 181.612534 232.360762 L 226.335546 235.230174 " transform="matrix(0.150754,0,0,0.15247,-14.164031,-14.881229)"/><path style="fill:none;stroke-width:5;stroke-linecap:round;stroke-linejoin:round;stroke:#e3c0a8;stroke-opacity:1;stroke-miterlimit:10;" d="M 205.580545 242.634283 L 253.568389 243.91527 " transform="matrix(0.150754,0,0,0.15247,-14.164031,-14.881229)"/><path style="fill:none;stroke-width:5;stroke-linecap:round;stroke-linejoin:round;stroke:#e3c0a8;stroke-opacity:1;stroke-miterlimit:10;" d="M 186.48387 249.295418 L 220.350022 248.142529 " transform="matrix(0.150754,0,0,0.15247,-14.164031,-14.881229)"/><path style="fill:none;stroke-width:5;stroke-linecap:round;stroke-linejoin:round;stroke:#305a85;stroke-opacity:1;stroke-miterlimit:10;" d="M 216.385583 219.730224 C 216.385583 219.730224 250.977253 221.293029 258.595193 222.394679 " transform="matrix(0.150754,0,0,0.15247,-14.164031,-14.881229)"/><path style=" stroke:none;fill-rule:nonzero;fill:#fee2bf;fill-opacity:1;" d="M 9.46875 14.414062 C 9.589844 14.355469 9.710938 14.292969 9.828125 14.230469 C 9.789062 14.109375 9.753906 13.992188 9.71875 13.886719 C 9.921875 14.5 10.207031 15.496094 10.207031 15.496094 C 10.105469 16.171875 9.1875 15.925781 9.1875 15.925781 C 9.1875 15.925781 9.292969 14.863281 9.386719 14.125 C 9.375 14.234375 9.359375 14.355469 9.34375 14.476562 C 9.386719 14.457031 9.425781 14.4375 9.46875 14.414062 Z M 9.46875 14.414062 "/><path style=" stroke:none;fill-rule:nonzero;fill:#85afde;fill-opacity:1;" d="M 9.539062 13.433594 C 9.539062 13.433594 9.539062 13.433594 9.539062 13.4375 C 9.542969 13.4375 9.542969 13.441406 9.542969 13.441406 C 9.546875 13.445312 9.546875 13.445312 9.546875 13.445312 C 9.546875 13.449219 9.550781 13.453125 9.550781 13.453125 C 9.550781 13.457031 9.554688 13.457031 9.554688 13.457031 C 9.554688 13.460938 9.558594 13.46875 9.5625 13.472656 C 9.5625 13.472656 9.5625 13.476562 9.5625 13.476562 C 9.566406 13.480469 9.566406 13.484375 9.570312 13.488281 C 9.570312 13.492188 9.570312 13.492188 9.574219 13.496094 C 9.574219 13.5 9.574219 13.503906 9.578125 13.507812 C 9.578125 13.511719 9.582031 13.511719 9.582031 13.515625 C 9.582031 13.519531 9.585938 13.523438 9.585938 13.527344 C 9.589844 13.53125 9.589844 13.535156 9.589844 13.539062 C 9.59375 13.542969 9.59375 13.546875 9.597656 13.550781 C 9.597656 13.554688 9.597656 13.558594 9.601562 13.5625 C 9.601562 13.566406 9.605469 13.570312 9.605469 13.578125 C 9.609375 13.578125 9.609375 13.582031 9.609375 13.585938 C 9.613281 13.59375 9.617188 13.601562 9.621094 13.613281 C 9.621094 13.617188 9.625 13.621094 9.625 13.625 C 9.628906 13.632812 9.628906 13.636719 9.628906 13.640625 C 9.632812 13.644531 9.636719 13.652344 9.636719 13.65625 C 9.636719 13.660156 9.640625 13.664062 9.640625 13.667969 C 9.644531 13.675781 9.644531 13.679688 9.648438 13.6875 C 9.648438 13.691406 9.652344 13.695312 9.652344 13.699219 C 9.65625 13.707031 9.65625 13.710938 9.660156 13.71875 C 9.660156 13.722656 9.660156 13.726562 9.664062 13.730469 C 9.679688 13.777344 9.699219 13.832031 9.71875 13.886719 C 9.753906 13.992188 9.789062 14.109375 9.828125 14.230469 C 9.710938 14.292969 9.589844 14.355469 9.46875 14.414062 C 9.425781 14.4375 9.386719 14.457031 9.34375 14.476562 C 9.359375 14.355469 9.375 14.234375 9.386719 14.125 C 9.390625 14.109375 9.390625 14.09375 9.394531 14.078125 C 9.394531 14.078125 9.394531 14.074219 9.394531 14.074219 C 9.398438 14.058594 9.398438 14.046875 9.402344 14.03125 C 9.402344 14.03125 9.402344 14.027344 9.402344 14.027344 C 9.402344 14.011719 9.40625 14 9.40625 13.984375 C 9.40625 13.984375 9.40625 13.984375 9.40625 13.980469 C 9.417969 13.910156 9.425781 13.84375 9.4375 13.785156 C 9.4375 13.78125 9.4375 13.777344 9.4375 13.773438 C 9.4375 13.765625 9.441406 13.757812 9.441406 13.75 C 9.441406 13.746094 9.441406 13.738281 9.445312 13.734375 C 9.445312 13.726562 9.445312 13.71875 9.449219 13.714844 C 9.449219 13.707031 9.449219 13.703125 9.449219 13.699219 C 9.453125 13.691406 9.453125 13.683594 9.453125 13.675781 C 9.453125 13.671875 9.457031 13.667969 9.457031 13.660156 C 9.457031 13.65625 9.457031 13.648438 9.460938 13.644531 C 9.460938 13.636719 9.460938 13.632812 9.460938 13.628906 C 9.464844 13.621094 9.464844 13.617188 9.464844 13.609375 C 9.464844 13.605469 9.46875 13.601562 9.46875 13.597656 C 9.46875 13.589844 9.46875 13.585938 9.472656 13.582031 C 9.472656 13.574219 9.472656 13.570312 9.472656 13.566406 C 9.476562 13.5625 9.476562 13.558594 9.476562 13.554688 C 9.480469 13.542969 9.480469 13.535156 9.480469 13.527344 C 9.484375 13.523438 9.484375 13.523438 9.484375 13.519531 C 9.484375 13.515625 9.488281 13.507812 9.488281 13.503906 C 9.488281 13.5 9.488281 13.5 9.488281 13.496094 C 9.492188 13.492188 9.492188 13.488281 9.492188 13.484375 C 9.492188 13.480469 9.496094 13.480469 9.496094 13.476562 C 9.496094 13.472656 9.496094 13.46875 9.5 13.464844 C 9.5 13.464844 9.5 13.460938 9.5 13.460938 C 9.5 13.457031 9.503906 13.453125 9.503906 13.453125 C 9.503906 13.449219 9.503906 13.449219 9.503906 13.445312 C 9.507812 13.441406 9.507812 13.441406 9.507812 13.4375 C 9.507812 13.4375 9.507812 13.4375 9.511719 13.433594 C 9.511719 13.433594 9.511719 13.429688 9.511719 13.429688 C 9.511719 13.429688 9.515625 13.429688 9.515625 13.425781 C 9.515625 13.425781 9.515625 13.425781 9.519531 13.421875 C 9.519531 13.421875 9.523438 13.421875 9.523438 13.421875 C 9.523438 13.421875 9.527344 13.421875 9.527344 13.421875 C 9.527344 13.421875 9.527344 13.421875 9.53125 13.421875 C 9.53125 13.425781 9.53125 13.425781 9.53125 13.425781 C 9.535156 13.425781 9.535156 13.429688 9.535156 13.429688 C 9.535156 13.429688 9.539062 13.429688 9.539062 13.433594 Z M 9.539062 13.433594 "/><path style=" stroke:none;fill-rule:nonzero;fill:#85afde;fill-opacity:1;" d="M 10.367188 16.203125 C 10.367188 16.203125 11.628906 25.304688 11.40625 25.753906 C 11.1875 26.199219 11.078125 26.238281 11.078125 26.238281 L 10.648438 26.390625 C 10.648438 26.390625 10.136719 26.054688 10.0625 26.035156 C 9.992188 26.011719 9.136719 16.222656 9.1875 15.925781 C 9.242188 15.628906 9.273438 15.480469 9.445312 15.460938 C 9.617188 15.445312 10.207031 15.496094 10.207031 15.496094 Z M 10.367188 16.203125 "/><path style="fill:none;stroke-width:5;stroke-linecap:round;stroke-linejoin:round;stroke:#5190be;stroke-opacity:1;stroke-miterlimit:10;" d="M 165.288375 244.350806 L 160.650241 204.255894 " transform="matrix(0.150754,0,0,0.15247,-14.164031,-14.881229)"/><path style="fill:none;stroke-width:5;stroke-linecap:round;stroke-linejoin:round;stroke:#facc7d;stroke-opacity:1;stroke-miterlimit:10;" d="M 160.494773 260.619348 C 160.494773 260.619348 162.464037 263.642479 163.940984 263.232563 " transform="matrix(0.150754,0,0,0.15247,-14.164031,-14.881229)"/><path style=" stroke:none;fill-rule:nonzero;fill:#de5963;fill-opacity:1;" d="M 12.425781 16.21875 C 12.425781 16.21875 12.453125 15.390625 13.007812 15.191406 C 13.5625 14.992188 13.855469 15.539062 13.855469 15.539062 C 13.855469 15.539062 13.824219 16.171875 13.742188 16.847656 C 13.65625 17.519531 12.316406 17.023438 12.425781 16.21875 Z M 12.425781 16.21875 "/><path style=" stroke:none;fill-rule:nonzero;fill:#fee2bf;fill-opacity:1;" d="M 11.320312 27.800781 C 11.4375 27.863281 11.554688 27.929688 11.671875 28 C 11.628906 28.117188 11.585938 28.234375 11.546875 28.339844 C 11.777344 27.734375 12.109375 26.753906 12.109375 26.753906 C 12.035156 26.074219 11.109375 26.277344 11.109375 26.277344 C 11.109375 26.277344 11.164062 27.34375 11.226562 28.085938 C 11.21875 27.976562 11.207031 27.855469 11.199219 27.734375 C 11.238281 27.753906 11.28125 27.777344 11.320312 27.800781 Z M 11.320312 27.800781 "/><path style=" stroke:none;fill-rule:nonzero;fill:#364352;fill-opacity:1;" d="M 11.347656 28.785156 C 11.347656 28.78125 11.347656 28.78125 11.347656 28.78125 C 11.351562 28.777344 11.351562 28.777344 11.355469 28.773438 C 11.355469 28.773438 11.355469 28.773438 11.355469 28.769531 C 11.359375 28.769531 11.359375 28.765625 11.363281 28.761719 C 11.363281 28.761719 11.363281 28.761719 11.363281 28.757812 C 11.367188 28.753906 11.367188 28.75 11.371094 28.746094 C 11.371094 28.746094 11.371094 28.742188 11.375 28.742188 C 11.375 28.738281 11.378906 28.734375 11.378906 28.730469 C 11.382812 28.726562 11.382812 28.722656 11.382812 28.722656 C 11.386719 28.71875 11.386719 28.714844 11.390625 28.710938 C 11.390625 28.707031 11.390625 28.707031 11.394531 28.703125 C 11.394531 28.699219 11.398438 28.695312 11.398438 28.691406 C 11.402344 28.6875 11.402344 28.683594 11.402344 28.679688 C 11.40625 28.675781 11.40625 28.671875 11.410156 28.667969 C 11.410156 28.664062 11.414062 28.660156 11.414062 28.65625 C 11.417969 28.652344 11.417969 28.648438 11.421875 28.644531 C 11.421875 28.640625 11.425781 28.636719 11.425781 28.632812 C 11.429688 28.625 11.433594 28.617188 11.4375 28.609375 C 11.4375 28.605469 11.441406 28.597656 11.441406 28.59375 C 11.445312 28.589844 11.445312 28.585938 11.449219 28.582031 C 11.449219 28.574219 11.453125 28.570312 11.453125 28.5625 C 11.457031 28.5625 11.457031 28.558594 11.460938 28.550781 C 11.460938 28.546875 11.464844 28.539062 11.46875 28.535156 C 11.46875 28.53125 11.472656 28.527344 11.472656 28.523438 C 11.476562 28.515625 11.476562 28.507812 11.480469 28.503906 C 11.480469 28.5 11.484375 28.496094 11.484375 28.492188 C 11.503906 28.445312 11.523438 28.394531 11.546875 28.339844 C 11.585938 28.234375 11.628906 28.117188 11.671875 28 C 11.554688 27.929688 11.4375 27.863281 11.320312 27.800781 C 11.28125 27.777344 11.238281 27.753906 11.199219 27.734375 C 11.207031 27.855469 11.21875 27.976562 11.226562 28.085938 C 11.230469 28.101562 11.230469 28.117188 11.230469 28.132812 C 11.230469 28.132812 11.230469 28.136719 11.230469 28.136719 C 11.234375 28.152344 11.234375 28.164062 11.234375 28.179688 C 11.234375 28.179688 11.234375 28.183594 11.234375 28.183594 C 11.238281 28.199219 11.238281 28.210938 11.238281 28.226562 C 11.238281 28.226562 11.238281 28.226562 11.238281 28.230469 C 11.246094 28.300781 11.253906 28.367188 11.261719 28.425781 C 11.261719 28.429688 11.261719 28.433594 11.261719 28.4375 C 11.261719 28.445312 11.261719 28.453125 11.265625 28.464844 C 11.265625 28.46875 11.265625 28.472656 11.265625 28.476562 C 11.265625 28.484375 11.265625 28.492188 11.269531 28.5 C 11.269531 28.503906 11.269531 28.511719 11.269531 28.515625 C 11.269531 28.523438 11.273438 28.527344 11.273438 28.535156 C 11.273438 28.539062 11.273438 28.546875 11.273438 28.550781 C 11.277344 28.558594 11.277344 28.5625 11.277344 28.570312 C 11.277344 28.574219 11.277344 28.582031 11.28125 28.585938 C 11.28125 28.589844 11.28125 28.597656 11.28125 28.601562 C 11.28125 28.609375 11.285156 28.613281 11.285156 28.617188 C 11.285156 28.621094 11.285156 28.628906 11.285156 28.632812 C 11.285156 28.636719 11.289062 28.644531 11.289062 28.648438 C 11.289062 28.652344 11.289062 28.65625 11.289062 28.660156 C 11.292969 28.667969 11.292969 28.679688 11.296875 28.6875 C 11.296875 28.6875 11.296875 28.691406 11.296875 28.695312 C 11.296875 28.699219 11.296875 28.703125 11.300781 28.710938 C 11.300781 28.710938 11.300781 28.714844 11.300781 28.71875 C 11.300781 28.722656 11.304688 28.726562 11.304688 28.730469 C 11.304688 28.734375 11.304688 28.734375 11.304688 28.738281 C 11.308594 28.742188 11.308594 28.746094 11.308594 28.75 C 11.308594 28.75 11.308594 28.753906 11.308594 28.753906 C 11.3125 28.757812 11.3125 28.761719 11.3125 28.765625 C 11.3125 28.765625 11.3125 28.769531 11.316406 28.769531 C 11.316406 28.773438 11.316406 28.773438 11.316406 28.777344 C 11.316406 28.777344 11.320312 28.777344 11.320312 28.78125 C 11.320312 28.78125 11.320312 28.785156 11.320312 28.785156 C 11.320312 28.785156 11.324219 28.789062 11.324219 28.789062 C 11.324219 28.789062 11.324219 28.792969 11.324219 28.792969 C 11.328125 28.792969 11.328125 28.792969 11.328125 28.792969 C 11.328125 28.792969 11.332031 28.796875 11.332031 28.796875 C 11.332031 28.796875 11.335938 28.796875 11.335938 28.792969 C 11.339844 28.792969 11.339844 28.792969 11.339844 28.789062 C 11.34375 28.789062 11.34375 28.789062 11.34375 28.789062 C 11.34375 28.785156 11.34375 28.785156 11.347656 28.785156 Z M 11.347656 28.785156 "/><path style=" stroke:none;fill-rule:nonzero;fill:#f5ab4c;fill-opacity:1;" d="M 12.296875 26.054688 C 12.296875 26.054688 13.808594 17.058594 13.757812 16.558594 C 13.707031 16.0625 13.449219 16.0625 13.449219 16.0625 L 13.027344 15.886719 C 13.027344 15.886719 12.5 16.199219 12.425781 16.21875 C 12.355469 16.234375 11.070312 25.980469 11.109375 26.277344 C 11.144531 26.578125 11.171875 26.726562 11.34375 26.75 C 11.515625 26.777344 12.109375 26.75 12.109375 26.75 Z M 12.296875 26.054688 "/><path style="fill:none;stroke-width:5;stroke-linecap:round;stroke-linejoin:round;stroke:#cc7b3d;stroke-opacity:1;stroke-miterlimit:10;" d="M 179.902384 228.159123 L 173.450455 267.997837 " transform="matrix(0.150754,0,0,0.15247,-14.164031,-14.881229)"/><path style="fill:none;stroke-width:5;stroke-linecap:round;stroke-linejoin:round;stroke:#facc7d;stroke-opacity:1;stroke-miterlimit:10;" d="M 175.8343 211.685622 C 175.8343 211.685622 177.907209 208.739351 179.384157 209.226126 " transform="matrix(0.150754,0,0,0.15247,-14.164031,-14.881229)"/><path style="fill:none;stroke-width:5;stroke-linecap:round;stroke-linejoin:round;stroke:#ed6e6f;stroke-opacity:1;stroke-miterlimit:10;" d="M 179.384157 198.798887 C 179.384157 198.798887 181.301598 197.389801 182.519432 198.337732 " transform="matrix(0.150754,0,0,0.15247,-14.164031,-14.881229)"/><path style=" stroke:none;fill-rule:nonzero;fill:#547591;fill-opacity:1;" d="M 12.265625 17.203125 C 12.265625 17.203125 12.558594 16.734375 13.03125 16.816406 C 13.503906 16.898438 13.699219 17.203125 13.699219 17.203125 C 13.699219 17.203125 13.757812 17.171875 13.789062 17.078125 C 13.820312 16.984375 13.789062 16.945312 13.789062 16.945312 L 13.855469 16.492188 C 13.855469 16.492188 13.941406 16.511719 13.980469 16.386719 C 14.015625 16.261719 13.8125 16.15625 13.8125 16.15625 C 13.8125 16.15625 13.394531 15.835938 12.679688 15.886719 C 12.25 15.949219 12.230469 16.238281 12.230469 16.238281 L 12.308594 16.28125 L 12.261719 16.984375 C 12.261719 16.984375 12.175781 17.109375 12.175781 17.164062 C 12.175781 17.214844 12.265625 17.203125 12.265625 17.203125 Z M 12.265625 17.203125 "/><path style="fill:none;stroke-width:5;stroke-linecap:round;stroke-linejoin:round;stroke:#47647c;stroke-opacity:1;stroke-miterlimit:10;" d="M 178.68455 203.845978 C 178.68455 203.845978 182.571254 203.564161 185.058745 205.203825 " transform="matrix(0.150754,0,0,0.15247,-14.164031,-14.881229)"/><path style=" stroke:none;fill-rule:nonzero;fill:#fee2bf;fill-opacity:1;" d="M 7.886719 16.105469 C 7.753906 16.085938 7.621094 16.066406 7.488281 16.042969 C 7.488281 15.914062 7.488281 15.789062 7.492188 15.679688 C 7.480469 16.324219 7.507812 17.363281 7.507812 17.363281 C 7.808594 17.976562 8.609375 17.457031 8.609375 17.457031 C 8.609375 17.457031 8.191406 16.480469 7.875 15.804688 C 7.921875 15.90625 7.972656 16.011719 8.023438 16.125 C 7.976562 16.117188 7.933594 16.113281 7.886719 16.105469 Z M 7.886719 16.105469 "/><path style=" stroke:none;fill-rule:nonzero;fill:#364352;fill-opacity:1;" d="M 7.523438 15.191406 C 7.523438 15.191406 7.523438 15.195312 7.523438 15.195312 C 7.523438 15.199219 7.523438 15.199219 7.519531 15.203125 C 7.519531 15.203125 7.519531 15.207031 7.519531 15.207031 C 7.519531 15.210938 7.519531 15.214844 7.519531 15.214844 C 7.519531 15.21875 7.515625 15.21875 7.515625 15.21875 C 7.515625 15.226562 7.515625 15.230469 7.515625 15.238281 C 7.511719 15.246094 7.511719 15.25 7.511719 15.253906 C 7.511719 15.257812 7.511719 15.257812 7.511719 15.261719 C 7.511719 15.265625 7.507812 15.269531 7.507812 15.273438 C 7.507812 15.277344 7.507812 15.28125 7.507812 15.285156 C 7.507812 15.289062 7.507812 15.292969 7.507812 15.296875 C 7.507812 15.300781 7.507812 15.304688 7.503906 15.308594 C 7.503906 15.3125 7.503906 15.316406 7.503906 15.320312 C 7.503906 15.324219 7.503906 15.328125 7.503906 15.332031 C 7.503906 15.339844 7.503906 15.34375 7.503906 15.347656 C 7.503906 15.351562 7.503906 15.355469 7.503906 15.359375 C 7.5 15.367188 7.5 15.378906 7.5 15.386719 C 7.5 15.390625 7.5 15.398438 7.5 15.402344 C 7.5 15.40625 7.5 15.410156 7.5 15.417969 C 7.5 15.421875 7.5 15.429688 7.496094 15.433594 C 7.496094 15.4375 7.496094 15.445312 7.496094 15.449219 C 7.496094 15.453125 7.496094 15.460938 7.496094 15.46875 C 7.496094 15.472656 7.496094 15.476562 7.496094 15.480469 C 7.496094 15.488281 7.496094 15.496094 7.496094 15.503906 C 7.496094 15.503906 7.496094 15.507812 7.496094 15.511719 C 7.492188 15.5625 7.492188 15.621094 7.492188 15.679688 C 7.488281 15.789062 7.488281 15.914062 7.488281 16.042969 C 7.621094 16.0625 7.753906 16.085938 7.886719 16.105469 C 7.933594 16.113281 7.976562 16.117188 8.023438 16.125 C 7.972656 16.011719 7.921875 15.90625 7.875 15.804688 C 7.867188 15.789062 7.863281 15.777344 7.855469 15.761719 C 7.855469 15.761719 7.855469 15.757812 7.855469 15.757812 C 7.847656 15.746094 7.84375 15.730469 7.835938 15.71875 C 7.835938 15.71875 7.835938 15.714844 7.835938 15.714844 C 7.828125 15.703125 7.820312 15.691406 7.816406 15.675781 C 7.816406 15.675781 7.816406 15.675781 7.8125 15.671875 C 7.785156 15.609375 7.753906 15.550781 7.726562 15.496094 C 7.726562 15.492188 7.722656 15.488281 7.722656 15.484375 C 7.71875 15.476562 7.714844 15.46875 7.710938 15.464844 C 7.710938 15.457031 7.707031 15.453125 7.707031 15.449219 C 7.703125 15.441406 7.699219 15.4375 7.695312 15.429688 C 7.691406 15.425781 7.691406 15.421875 7.6875 15.417969 C 7.683594 15.410156 7.683594 15.402344 7.679688 15.398438 C 7.675781 15.394531 7.671875 15.386719 7.671875 15.382812 C 7.667969 15.378906 7.664062 15.371094 7.664062 15.367188 C 7.660156 15.363281 7.65625 15.359375 7.65625 15.351562 C 7.652344 15.347656 7.648438 15.34375 7.648438 15.339844 C 7.644531 15.332031 7.640625 15.328125 7.640625 15.324219 C 7.636719 15.320312 7.636719 15.316406 7.632812 15.3125 C 7.628906 15.308594 7.628906 15.300781 7.625 15.296875 C 7.625 15.292969 7.621094 15.289062 7.617188 15.285156 C 7.613281 15.277344 7.609375 15.273438 7.605469 15.265625 C 7.605469 15.261719 7.601562 15.261719 7.601562 15.257812 C 7.597656 15.253906 7.597656 15.25 7.59375 15.246094 C 7.59375 15.242188 7.589844 15.238281 7.589844 15.238281 C 7.585938 15.234375 7.585938 15.230469 7.582031 15.226562 C 7.582031 15.222656 7.578125 15.222656 7.578125 15.21875 C 7.578125 15.214844 7.574219 15.214844 7.574219 15.210938 C 7.570312 15.207031 7.570312 15.207031 7.570312 15.207031 C 7.566406 15.203125 7.566406 15.199219 7.5625 15.199219 C 7.5625 15.195312 7.5625 15.195312 7.558594 15.195312 C 7.558594 15.191406 7.558594 15.191406 7.554688 15.1875 C 7.554688 15.1875 7.554688 15.1875 7.550781 15.183594 C 7.550781 15.183594 7.550781 15.183594 7.546875 15.179688 C 7.542969 15.175781 7.542969 15.175781 7.542969 15.175781 C 7.542969 15.175781 7.539062 15.175781 7.539062 15.175781 C 7.539062 15.175781 7.535156 15.175781 7.535156 15.175781 C 7.535156 15.175781 7.53125 15.175781 7.53125 15.179688 C 7.53125 15.179688 7.527344 15.183594 7.527344 15.183594 C 7.527344 15.183594 7.527344 15.183594 7.527344 15.1875 C 7.527344 15.1875 7.523438 15.191406 7.523438 15.191406 Z M 7.523438 15.191406 "/><path style=" stroke:none;fill-rule:nonzero;fill:#f5ab4c;fill-opacity:1;" d="M 7.570312 18.085938 C 7.570312 18.085938 9.113281 27.144531 9.457031 27.5 C 9.804688 27.859375 9.917969 27.859375 9.917969 27.859375 L 10.375 27.875 C 10.375 27.875 10.757812 27.398438 10.824219 27.355469 C 10.886719 27.3125 8.746094 17.722656 8.609375 17.457031 C 8.46875 17.191406 8.394531 17.058594 8.226562 17.097656 C 8.054688 17.132812 7.507812 17.363281 7.507812 17.363281 Z M 7.570312 18.085938 "/><path style="fill:none;stroke-width:5;stroke-linecap:round;stroke-linejoin:round;stroke:#cc7b3d;stroke-opacity:1;stroke-miterlimit:10;" d="M 154.068755 255.546638 L 146.269435 215.964121 " transform="matrix(0.150754,0,0,0.15247,-14.164031,-14.881229)"/><path style="fill:none;stroke-width:5;stroke-linecap:round;stroke-linejoin:round;stroke:#facc7d;stroke-opacity:1;stroke-miterlimit:10;" d="M 163.578225 269.586262 C 163.578225 269.586262 162.645416 273.070548 161.116646 273.121787 " transform="matrix(0.150754,0,0,0.15247,-14.164031,-14.881229)"/><path style=" stroke:none;fill-rule:nonzero;fill:#fee2bf;fill-opacity:1;" d="M 11.507812 14.785156 C 11.382812 14.726562 11.265625 14.664062 11.144531 14.601562 C 11.183594 14.480469 11.222656 14.363281 11.257812 14.257812 C 11.050781 14.871094 10.765625 15.867188 10.765625 15.867188 C 10.871094 16.542969 11.785156 16.296875 11.785156 16.296875 C 11.785156 16.296875 11.683594 15.234375 11.585938 14.496094 C 11.601562 14.605469 11.613281 14.726562 11.628906 14.847656 C 11.589844 14.828125 11.546875 14.804688 11.507812 14.785156 Z M 11.507812 14.785156 "/><path style=" stroke:none;fill-rule:nonzero;fill:#e94b59;fill-opacity:1;" d="M 11.4375 13.804688 C 11.433594 13.804688 11.433594 13.804688 11.433594 13.808594 C 11.433594 13.808594 11.429688 13.8125 11.429688 13.8125 C 11.429688 13.8125 11.429688 13.816406 11.425781 13.816406 C 11.425781 13.820312 11.425781 13.824219 11.421875 13.824219 C 11.421875 13.828125 11.421875 13.828125 11.421875 13.828125 C 11.417969 13.832031 11.414062 13.839844 11.414062 13.84375 C 11.414062 13.84375 11.410156 13.84375 11.410156 13.847656 C 11.410156 13.851562 11.40625 13.855469 11.40625 13.859375 C 11.402344 13.863281 11.402344 13.863281 11.402344 13.867188 C 11.398438 13.871094 11.398438 13.875 11.394531 13.878906 C 11.394531 13.882812 11.394531 13.882812 11.394531 13.886719 C 11.390625 13.890625 11.390625 13.894531 11.386719 13.898438 C 11.386719 13.902344 11.382812 13.90625 11.382812 13.910156 C 11.382812 13.914062 11.378906 13.917969 11.378906 13.921875 C 11.375 13.925781 11.375 13.929688 11.375 13.933594 C 11.371094 13.9375 11.371094 13.941406 11.367188 13.945312 C 11.367188 13.949219 11.363281 13.953125 11.363281 13.957031 C 11.359375 13.964844 11.355469 13.972656 11.355469 13.984375 C 11.351562 13.988281 11.351562 13.992188 11.347656 13.996094 C 11.347656 14 11.34375 14.007812 11.34375 14.011719 C 11.339844 14.015625 11.339844 14.023438 11.335938 14.027344 C 11.335938 14.03125 11.335938 14.035156 11.332031 14.039062 C 11.332031 14.046875 11.328125 14.050781 11.324219 14.058594 C 11.324219 14.0625 11.324219 14.066406 11.320312 14.070312 C 11.320312 14.078125 11.316406 14.082031 11.316406 14.089844 C 11.3125 14.09375 11.3125 14.097656 11.3125 14.097656 C 11.292969 14.148438 11.277344 14.199219 11.257812 14.257812 C 11.222656 14.363281 11.183594 14.480469 11.144531 14.601562 C 11.265625 14.664062 11.386719 14.726562 11.507812 14.785156 C 11.546875 14.804688 11.589844 14.828125 11.628906 14.847656 C 11.617188 14.726562 11.601562 14.605469 11.585938 14.496094 C 11.585938 14.496094 11.585938 14.496094 11.585938 14.492188 C 11.585938 14.480469 11.582031 14.464844 11.582031 14.449219 C 11.578125 14.449219 11.578125 14.445312 11.578125 14.445312 C 11.578125 14.429688 11.574219 14.414062 11.574219 14.402344 C 11.574219 14.402344 11.574219 14.398438 11.574219 14.398438 C 11.570312 14.382812 11.570312 14.371094 11.566406 14.355469 C 11.566406 14.355469 11.566406 14.355469 11.566406 14.351562 C 11.558594 14.28125 11.546875 14.214844 11.539062 14.15625 C 11.539062 14.152344 11.539062 14.148438 11.535156 14.144531 C 11.535156 14.136719 11.535156 14.128906 11.53125 14.121094 C 11.53125 14.117188 11.53125 14.109375 11.53125 14.105469 C 11.527344 14.097656 11.527344 14.089844 11.527344 14.082031 C 11.527344 14.078125 11.523438 14.074219 11.523438 14.070312 C 11.523438 14.0625 11.523438 14.054688 11.519531 14.046875 C 11.519531 14.042969 11.519531 14.039062 11.519531 14.03125 C 11.515625 14.027344 11.515625 14.019531 11.515625 14.015625 C 11.515625 14.007812 11.511719 14.003906 11.511719 14 C 11.511719 13.992188 11.511719 13.988281 11.507812 13.980469 C 11.507812 13.976562 11.507812 13.972656 11.503906 13.964844 C 11.503906 13.960938 11.503906 13.957031 11.503906 13.953125 C 11.5 13.945312 11.5 13.941406 11.5 13.9375 C 11.5 13.933594 11.5 13.925781 11.496094 13.921875 C 11.496094 13.914062 11.492188 13.90625 11.492188 13.898438 C 11.492188 13.894531 11.492188 13.894531 11.488281 13.890625 C 11.488281 13.886719 11.488281 13.878906 11.488281 13.875 C 11.484375 13.871094 11.484375 13.871094 11.484375 13.867188 C 11.484375 13.863281 11.480469 13.859375 11.480469 13.855469 C 11.480469 13.851562 11.480469 13.851562 11.480469 13.847656 C 11.476562 13.84375 11.476562 13.839844 11.476562 13.835938 C 11.476562 13.835938 11.476562 13.832031 11.472656 13.832031 C 11.472656 13.828125 11.472656 13.824219 11.472656 13.820312 C 11.46875 13.820312 11.46875 13.816406 11.46875 13.816406 C 11.46875 13.8125 11.46875 13.8125 11.464844 13.808594 C 11.464844 13.808594 11.464844 13.808594 11.464844 13.804688 C 11.460938 13.804688 11.460938 13.800781 11.460938 13.800781 C 11.460938 13.800781 11.460938 13.796875 11.460938 13.796875 C 11.457031 13.796875 11.457031 13.796875 11.457031 13.792969 C 11.457031 13.792969 11.457031 13.792969 11.453125 13.792969 C 11.453125 13.792969 11.453125 13.792969 11.449219 13.792969 C 11.449219 13.792969 11.449219 13.792969 11.445312 13.792969 C 11.445312 13.796875 11.441406 13.796875 11.441406 13.796875 C 11.441406 13.796875 11.441406 13.796875 11.4375 13.800781 C 11.4375 13.800781 11.4375 13.800781 11.4375 13.804688 Z M 11.4375 13.804688 "/><path style=" stroke:none;fill-rule:nonzero;fill:#e94b59;fill-opacity:1;" d="M 10.605469 16.574219 C 10.605469 16.574219 9.34375 25.675781 9.566406 26.125 C 9.785156 26.570312 9.898438 26.609375 9.898438 26.609375 L 10.324219 26.761719 C 10.324219 26.761719 10.835938 26.425781 10.910156 26.40625 C 10.984375 26.382812 11.835938 16.59375 11.785156 16.296875 C 11.734375 16 11.703125 15.851562 11.527344 15.832031 C 11.355469 15.816406 10.765625 15.867188 10.765625 15.867188 Z M 10.605469 16.574219 "/><path style="fill:none;stroke-width:5;stroke-linecap:round;stroke-linejoin:round;stroke:#842c42;stroke-opacity:1;stroke-miterlimit:10;" d="M 161.738518 246.784682 L 166.402564 206.689771 " transform="matrix(0.150754,0,0,0.15247,-14.164031,-14.881229)"/><path style="fill:none;stroke-width:5;stroke-linecap:round;stroke-linejoin:round;stroke:#facc7d;stroke-opacity:1;stroke-miterlimit:10;" d="M 166.532121 263.053225 C 166.532121 263.053225 164.588768 266.076356 163.085909 265.66644 " transform="matrix(0.150754,0,0,0.15247,-14.164031,-14.881229)"/><g clip-rule="nonzero" clip-path="url(#5bca277f3b)"><path style=" stroke:none;fill-rule:nonzero;fill:#b3cdec;fill-opacity:1;" d="M 14.699219 32.199219 C 14.699219 32.199219 14.472656 24.40625 14.453125 23.613281 C 13.878906 23.171875 13.269531 23.054688 13.210938 22.644531 C 13.152344 22.234375 14.328125 22.320312 14.265625 21.878906 C 14.199219 21.441406 13.953125 21.058594 13.84375 21.027344 C 13.734375 21 7.839844 20.441406 7.113281 21.027344 C 6.820312 21.441406 7.988281 21.722656 8.128906 22.027344 C 8.382812 22.585938 6.894531 22.839844 6.777344 23.25 C 6.664062 23.664062 6.300781 31.339844 6.445312 32.046875 C 6.445312 32.046875 9.851562 33.320312 14.699219 32.199219 Z M 14.699219 32.199219 "/></g><g clip-rule="nonzero" clip-path="url(#8e2723ab42)"><path style="fill:none;stroke-width:5;stroke-linecap:round;stroke-linejoin:round;stroke:#5190be;stroke-opacity:1;stroke-miterlimit:10;" d="M 141.605389 271.8408 C 141.605389 271.8408 139.869328 296.691959 141.605389 301.175416 " transform="matrix(0.150754,0,0,0.15247,-14.164031,-14.881229)"/></g><g clip-rule="nonzero" clip-path="url(#c3dc6db196)"><path style="fill:none;stroke-width:5;stroke-linecap:round;stroke-linejoin:round;stroke:#5190be;stroke-opacity:1;stroke-miterlimit:10;" d="M 141.216719 257.519358 C 141.216719 257.519358 140.646669 264.718509 140.85396 265.897017 " transform="matrix(0.150754,0,0,0.15247,-14.164031,-14.881229)"/></g><path style="fill:none;stroke-width:5;stroke-linecap:round;stroke-linejoin:round;stroke:#c1d8f2;stroke-opacity:1;stroke-miterlimit:10;" d="M 151.399885 241.84007 C 151.399885 241.84007 174.720111 242.762381 178.244057 244.017749 " transform="matrix(0.150754,0,0,0.15247,-14.164031,-14.881229)"/></g></svg>