<svg xmlns="http://www.w3.org/2000/svg" xmlns:xlink="http://www.w3.org/1999/xlink" width="48" zoomAndPan="magnify" viewBox="0 0 36 36.000001" height="48" preserveAspectRatio="xMidYMid meet" version="1.2"><defs><clipPath id="95cc9aa5e5"><path d="M 2.203125 1.714844 L 33.578125 1.714844 L 33.578125 33.09375 L 2.203125 33.09375 Z M 2.203125 1.714844 "/></clipPath></defs><g id="ecd370151a"><g clip-rule="nonzero" clip-path="url(#95cc9aa5e5)"><path style=" stroke:none;fill-rule:evenodd;fill:#f4bc33;fill-opacity:1;" d="M 17.890625 1.714844 C 9.226562 1.714844 2.203125 8.738281 2.203125 17.402344 C 2.203125 26.070312 9.226562 33.09375 17.890625 33.09375 C 26.554688 33.09375 33.578125 26.070312 33.578125 17.402344 C 33.578125 8.738281 26.554688 1.714844 17.890625 1.714844 Z M 17.910156 4.304688 C 20.179688 4.3125 22.03125 6.179688 22.027344 8.46875 C 22.027344 10.757812 20.179688 12.625 17.90625 12.632812 C 15.605469 12.640625 13.726562 10.742188 13.753906 8.433594 C 13.777344 6.136719 15.628906 4.300781 17.910156 4.304688 Z M 29.269531 24.667969 C 28.527344 25.300781 28.101562 25.253906 27.464844 24.496094 C 26.113281 22.882812 24.765625 21.265625 23.414062 19.652344 C 23.285156 19.496094 23.140625 19.355469 22.878906 19.082031 C 22.878906 19.492188 22.878906 19.726562 22.878906 19.957031 C 22.878906 22.648438 22.859375 25.339844 22.894531 28.03125 C 22.90625 28.890625 22.671875 29.550781 21.898438 29.980469 C 19.25 29.980469 16.597656 29.980469 13.949219 29.980469 C 13.164062 29.617188 12.878906 29.003906 12.890625 28.144531 C 12.921875 25.40625 12.902344 22.667969 12.902344 19.929688 C 12.902344 19.726562 12.902344 19.519531 12.902344 19.136719 C 12.644531 19.421875 12.503906 19.570312 12.371094 19.726562 C 11.046875 21.3125 9.722656 22.894531 8.398438 24.476562 C 7.738281 25.269531 7.332031 25.300781 6.546875 24.644531 C 6.394531 24.519531 6.242188 24.398438 6.097656 24.265625 C 5.472656 23.710938 5.429688 23.289062 5.960938 22.644531 C 7.445312 20.855469 8.9375 19.074219 10.429688 17.292969 C 11.320312 16.222656 12.183594 15.132812 13.117188 14.105469 C 13.390625 13.804688 13.871094 13.53125 14.261719 13.523438 C 16.691406 13.472656 19.125 13.507812 21.558594 13.496094 C 22.089844 13.492188 22.445312 13.71875 22.773438 14.113281 C 25.257812 17.105469 27.75 20.085938 30.242188 23.070312 C 30.242188 23.285156 30.242188 23.503906 30.242188 23.722656 C 29.917969 24.039062 29.609375 24.375 29.269531 24.667969 Z M 29.269531 24.667969 "/></g></g></svg>