<svg xmlns="http://www.w3.org/2000/svg" xmlns:xlink="http://www.w3.org/1999/xlink" width="48" zoomAndPan="magnify" viewBox="0 0 36 36.000001" height="48" preserveAspectRatio="xMidYMid meet" version="1.2"><defs><clipPath id="012ec4d0a8"><path d="M 4.613281 3 L 31.613281 3 L 31.613281 31 L 4.613281 31 Z M 4.613281 3 "/></clipPath><clipPath id="d79d68740a"><path d="M 5 2.042969 L 31.613281 2.042969 L 31.613281 32.691406 L 5 32.691406 Z M 5 2.042969 "/></clipPath><clipPath id="19fc1ff233"><path d="M 4.613281 2.042969 L 31.613281 2.042969 L 31.613281 32.691406 L 4.613281 32.691406 Z M 4.613281 2.042969 "/></clipPath></defs><g id="04c9eec2e2"><g clip-rule="nonzero" clip-path="url(#012ec4d0a8)"><path style=" stroke:none;fill-rule:evenodd;fill:#ffffff;fill-opacity:1;" d="M 31.289062 7.128906 C 31.289062 7.058594 31.230469 7 31.15625 7 L 31.097656 7 C 31.019531 6.925781 30.914062 6.878906 30.796875 6.878906 L 17.042969 6.988281 C 17.050781 6.945312 17.050781 6.917969 17.050781 6.917969 L 17.699219 6.90625 C 17.699219 6.90625 17.589844 6.667969 17.292969 6.585938 C 16.996094 6.507812 16.050781 6.507812 15.890625 6.707031 C 15.890625 6.707031 15.808594 6.851562 15.800781 6.996094 L 15.40625 7 L 10.386719 7 C 10.027344 7 9.738281 7.285156 9.738281 7.636719 L 9.738281 12.402344 L 7.613281 14.316406 C 7.613281 14.316406 7.804688 15.191406 7.855469 15.46875 C 7.90625 15.75 8.039062 15.796875 8.039062 15.796875 L 9.738281 15.976562 L 9.738281 16.015625 L 8.726562 15.902344 C 8.726562 15.902344 8.535156 16.339844 8.535156 16.632812 C 8.535156 16.921875 8.808594 17.28125 8.808594 17.28125 L 9.738281 17.085938 L 9.738281 17.09375 C 9.460938 17.167969 8.839844 17.332031 8.605469 17.347656 C 8.300781 17.367188 7.820312 17.632812 7.363281 17.480469 C 6.902344 17.328125 6.679688 17.1875 6.5 16.632812 C 6.316406 16.074219 6.214844 15.699219 6.214844 15.699219 L 4.820312 17.070312 C 4.820312 17.070312 4.738281 17.308594 4.921875 17.507812 C 5.105469 17.707031 7.332031 19.933594 7.332031 19.933594 C 7.332031 19.933594 7.511719 20.132812 7.835938 19.972656 C 7.90625 19.941406 8.066406 19.816406 8.273438 19.644531 C 8.089844 19.851562 7.746094 20.175781 7.472656 20.09375 L 7.734375 30.632812 L 9.335938 30.613281 L 9.414062 30.253906 L 10.488281 30.511719 C 10.488281 30.511719 11.722656 25.960938 11.785156 25.105469 C 11.84375 24.25 11.90625 23.722656 11.722656 22.90625 C 11.71875 22.898438 11.71875 22.886719 11.714844 22.878906 L 23.542969 22.878906 C 23.757812 23.148438 24.332031 23.859375 24.539062 23.925781 C 24.796875 24.003906 27.277344 24.042969 27.277344 24.042969 L 28.640625 23.964844 L 28.878906 23.023438 C 28.890625 23.195312 28.898438 23.484375 28.84375 23.59375 C 28.761719 23.75 28.640625 23.964844 28.640625 23.964844 L 30.449219 23.988281 C 30.449219 23.988281 30.734375 23.871094 30.679688 23.660156 C 30.648438 23.539062 30.523438 23.171875 30.417969 22.875 L 31.289062 22.875 Z M 28.871094 22.890625 C 28.871094 22.890625 28.875 22.933594 28.878906 22.996094 L 28.828125 22.875 L 29.261719 22.875 Z M 6.964844 11.027344 C 7.007812 10.769531 7.289062 10.75 7.289062 10.75 L 8.402344 9.574219 C 8.402344 9.574219 9.050781 10.003906 9.203125 10.359375 C 9.355469 10.71875 9.355469 11.214844 9.152344 11.394531 C 8.949219 11.574219 8.59375 11.59375 8.59375 11.59375 L 8.667969 11.941406 L 7.714844 12.078125 L 7.574219 11.164062 C 7.574219 11.164062 6.925781 11.285156 6.964844 11.027344 Z M 20.761719 3.871094 L 22.40625 3.457031 L 22.652344 3.988281 L 22.851562 3.894531 C 22.851562 3.894531 23.175781 3.75 23.269531 4.015625 C 23.367188 4.28125 22.839844 4.546875 22.839844 4.546875 L 22.867188 4.785156 L 23.175781 5.007812 C 23.175781 5.007812 22.988281 5.339844 22.570312 5.433594 C 22.152344 5.527344 22.125 5.21875 22.125 5.21875 C 20.761719 5.339844 20.761719 3.871094 20.761719 3.871094 Z M 26.0625 26.679688 L 27.210938 28.335938 C 27.210938 28.335938 27.007812 28.257812 26.722656 28.402344 C 26.441406 28.550781 26.496094 28.972656 26.496094 28.972656 C 26.496094 28.972656 26.25 29.476562 25.957031 29.796875 C 25.660156 30.113281 25.535156 30.179688 25.429688 30.101562 C 25.320312 30.019531 25.28125 29.714844 25.28125 29.714844 L 25.550781 29.117188 L 25.457031 28.335938 L 24.949219 27.613281 C 24.90625 27.621094 24.816406 27.625 24.632812 27.609375 C 24.347656 27.582031 24.417969 27.261719 24.417969 27.261719 L 23.917969 26.734375 L 24.875 26.707031 Z M 26.0625 26.679688 "/></g><g clip-rule="nonzero" clip-path="url(#d79d68740a)"><path style=" stroke:none;fill-rule:evenodd;fill:#f7ce4d;fill-opacity:1;" d="M 7.714844 12.082031 L 8.667969 11.941406 C 8.667969 11.941406 8.714844 12.234375 8.929688 12.234375 C 9.144531 12.234375 9.980469 12.140625 9.980469 12.140625 L 7.660156 14.289062 C 7.660156 14.289062 7.742188 15.691406 7.902344 15.773438 C 8.066406 15.851562 8.726562 15.90625 8.726562 15.90625 C 8.726562 15.90625 8.375 16.449219 8.511719 16.726562 C 8.644531 17.003906 8.808594 17.28125 8.808594 17.28125 C 8.808594 17.28125 7.824219 17.5625 7.363281 17.480469 C 6.90625 17.402344 6.714844 17.242188 6.390625 16.234375 C 6.066406 15.226562 5.878906 14.21875 5.960938 13.847656 C 6.042969 13.476562 6.082031 13.027344 6.378906 12.867188 C 6.675781 12.707031 7.539062 12.484375 7.539062 12.484375 C 7.539062 12.484375 7.863281 12.378906 7.714844 12.082031 Z M 7.796875 32.597656 L 10.933594 32.558594 L 10.851562 32.378906 L 11.15625 32.300781 C 11.15625 32.300781 10.992188 31.902344 10.8125 31.742188 C 10.628906 31.585938 10.285156 31.445312 10.101562 31.207031 C 9.921875 30.96875 10.082031 30.472656 10.082031 30.472656 L 9.414062 30.253906 L 9.335938 30.609375 L 7.835938 30.609375 Z M 31.535156 26.28125 L 31.535156 24.480469 C 31.535156 24.242188 31.335938 24.050781 31.09375 24.050781 L 20.375 24.050781 C 20.132812 24.050781 19.9375 24.242188 19.9375 24.480469 L 19.9375 26.28125 C 19.9375 26.519531 20.132812 26.714844 20.375 26.714844 L 31.09375 26.714844 C 31.339844 26.714844 31.535156 26.519531 31.535156 26.28125 Z M 22.664062 6.917969 L 21.609375 8.535156 L 21.339844 8.613281 C 21.339844 8.613281 21.488281 8.867188 21.625 9.144531 C 21.761719 9.421875 21.585938 9.765625 21.585938 9.765625 C 21.585938 9.765625 21.773438 9.859375 22.3125 9.742188 C 22.851562 9.621094 23.054688 9.199219 23.054688 9.199219 C 23.054688 9.199219 24.796875 6.308594 24.863281 6.070312 C 24.929688 5.832031 24.824219 5.417969 24.445312 5.234375 C 24.066406 5.050781 23.175781 5.007812 23.175781 5.007812 C 23.175781 5.007812 22.945312 5.3125 22.570312 5.433594 C 22.191406 5.550781 22.21875 5.167969 22.21875 5.167969 C 22.21875 5.167969 22.21875 5.167969 21.976562 5.207031 C 21.730469 5.246094 21.179688 5.035156 21.179688 5.035156 C 21.179688 5.035156 20.761719 5.179688 20.273438 5.484375 C 19.789062 5.792969 18.574219 6.917969 18.574219 6.917969 Z M 20.597656 2.996094 C 20.597656 2.996094 20.667969 3.617188 20.746094 3.777344 C 20.828125 3.9375 22.421875 3.417969 22.742188 3.195312 C 23.066406 2.96875 22.945312 2.808594 22.945312 2.808594 L 22.59375 2.304688 C 22.597656 2.304688 21.207031 2.09375 20.597656 2.996094 Z M 15.257812 14.777344 L 15.308594 17.242188 L 17.496094 18.542969 L 19.816406 17.296875 L 19.816406 14.777344 L 17.46875 13.371094 Z M 27.804688 10.855469 L 27.777344 11.648438 L 28.585938 12.207031 L 29.316406 11.703125 L 29.339844 10.800781 L 28.585938 10.402344 Z M 27.804688 10.855469 "/></g><path style=" stroke:none;fill-rule:evenodd;fill:#000000;fill-opacity:1;" d="M 9.113281 9.136719 C 9.191406 9.574219 8.929688 9.933594 8.929688 9.933594 L 8.402344 9.574219 L 7.289062 10.75 C 7.289062 10.75 6.945312 10.75 6.964844 11.027344 C 6.984375 11.304688 7.574219 11.167969 7.574219 11.167969 L 7.695312 11.605469 C 7.695312 11.605469 7.816406 12.398438 7.632812 12.019531 C 7.449219 11.644531 7.429688 11.800781 7.085938 11.625 C 6.742188 11.445312 6.480469 11.207031 6.296875 10.867188 C 6.113281 10.53125 6.316406 9.894531 6.316406 9.894531 C 6.316406 9.894531 6.621094 9.65625 6.882812 9.457031 C 7.144531 9.257812 7.328125 8.902344 7.550781 8.78125 C 7.773438 8.664062 7.914062 8.742188 7.914062 8.742188 C 7.914062 8.742188 8.035156 8.523438 8.300781 8.5625 C 8.5625 8.601562 8.683594 8.839844 8.683594 8.839844 C 8.808594 8.699219 9.03125 8.699219 9.113281 9.136719 Z M 23.175781 3.871094 C 23.339844 3.976562 23.015625 3.019531 23.015625 3.019531 L 22.300781 3.417969 L 22.652344 3.988281 C 22.648438 3.988281 23.015625 3.761719 23.175781 3.871094 Z M 29.691406 17.839844 C 29.476562 17.496094 28.976562 16.871094 28.828125 16.367188 C 28.679688 15.863281 28.601562 15.203125 28.492188 14.898438 C 28.382812 14.59375 28.03125 14.167969 27.464844 14.234375 C 27.464844 14.234375 26.226562 13.226562 25.375 14.566406 C 25.375 14.566406 25.980469 15.492188 26.210938 15.507812 C 26.441406 15.519531 26.5625 15.441406 26.617188 15.546875 C 26.667969 15.652344 26.371094 15.839844 26.371094 15.839844 L 26.425781 16.382812 L 26.84375 16.382812 L 26.953125 16.167969 C 26.953125 16.167969 27.410156 16.011719 27.453125 15.890625 C 27.453125 15.890625 27.574219 16.738281 27.519531 17.164062 C 27.464844 17.585938 27.25 17.800781 27.207031 18.039062 C 27.167969 18.277344 27.167969 18.925781 27.519531 18.964844 C 27.871094 19.007812 28.019531 18.875 28.019531 18.875 C 28.019531 18.875 28.289062 19.484375 28.800781 19.324219 C 29.3125 19.164062 29.191406 18.703125 29.191406 18.703125 C 29.191406 18.703125 29.300781 18.925781 29.625 18.648438 C 29.945312 18.371094 29.910156 18.183594 29.691406 17.839844 Z M 22.042969 22.691406 L 22.015625 23.222656 C 22.015625 23.222656 20.9375 23.179688 20.871094 23.9375 C 20.871094 23.964844 21.300781 24.03125 21.707031 24.054688 C 22.109375 24.082031 24 24.054688 24 24.054688 L 23.460938 22.730469 Z M 26.574219 27.351562 C 25.460938 27.210938 25.320312 28.144531 25.320312 28.144531 C 25.320312 28.144531 25.585938 28.542969 25.5625 28.941406 C 25.542969 29.335938 25.28125 29.714844 25.28125 29.714844 L 25.339844 30.070312 C 25.296875 29.96875 25.292969 29.835938 25.292969 29.835938 C 25.292969 29.835938 25.078125 30.113281 24.996094 30.429688 C 24.917969 30.75 25.160156 30.882812 25.5625 30.867188 C 25.96875 30.855469 26.46875 30.296875 26.46875 30.296875 L 27.589844 29.027344 C 27.589844 29.027344 27.441406 28.667969 27.359375 28.535156 Z M 26.574219 27.351562 "/><g clip-rule="nonzero" clip-path="url(#19fc1ff233)"><path style=" stroke:none;fill-rule:nonzero;fill:#000000;fill-opacity:1;" d="M 10.484375 8.652344 C 10.484375 8.605469 10.523438 8.570312 10.566406 8.570312 L 16.570312 8.570312 C 16.617188 8.570312 16.65625 8.605469 16.65625 8.652344 C 16.65625 8.695312 16.617188 8.734375 16.570312 8.734375 L 10.566406 8.734375 C 10.523438 8.734375 10.484375 8.695312 10.484375 8.652344 Z M 10.566406 9.140625 L 12.578125 9.140625 C 12.625 9.140625 12.660156 9.105469 12.660156 9.058594 C 12.660156 9.015625 12.625 8.976562 12.578125 8.976562 L 10.566406 8.976562 C 10.523438 8.976562 10.484375 9.015625 10.484375 9.058594 C 10.484375 9.105469 10.523438 9.140625 10.566406 9.140625 Z M 16.59375 9.019531 L 14.582031 9.019531 C 14.535156 9.019531 14.5 9.054688 14.5 9.101562 C 14.5 9.144531 14.535156 9.183594 14.582031 9.183594 L 16.59375 9.183594 C 16.640625 9.183594 16.675781 9.144531 16.675781 9.101562 C 16.675781 9.054688 16.640625 9.019531 16.59375 9.019531 Z M 31.589844 24.480469 L 31.589844 26.234375 C 31.589844 26.515625 31.351562 26.75 31.0625 26.75 L 26.152344 26.75 C 26.46875 27.160156 27.472656 28.480469 27.601562 28.792969 C 27.742188 29.144531 27.507812 29.371094 27.035156 29.828125 C 26.949219 29.910156 26.851562 30.003906 26.75 30.105469 C 26.355469 30.496094 25.886719 30.964844 25.433594 30.964844 C 25.332031 30.964844 25.230469 30.941406 25.132812 30.886719 C 24.683594 30.640625 24.949219 30.15625 25.160156 29.769531 C 25.214844 29.671875 25.265625 29.578125 25.304688 29.492188 L 25.359375 29.378906 C 25.511719 29.046875 25.523438 29.027344 25.433594 28.65625 C 25.382812 28.4375 25.144531 28.023438 24.925781 27.671875 C 24.894531 27.675781 24.847656 27.683594 24.792969 27.683594 C 24.691406 27.683594 24.5625 27.664062 24.464844 27.59375 C 24.394531 27.542969 24.351562 27.46875 24.335938 27.378906 L 23.816406 26.75 L 20.414062 26.75 C 20.125 26.75 19.890625 26.515625 19.890625 26.234375 L 19.890625 24.480469 C 19.890625 24.199219 20.125 23.964844 20.414062 23.964844 L 20.835938 23.964844 C 20.828125 23.867188 20.839844 23.683594 20.996094 23.480469 C 21.222656 23.191406 21.761719 23.140625 21.964844 23.132812 L 21.980469 22.941406 L 11.808594 22.941406 C 11.898438 23.679688 11.941406 24.335938 11.898438 24.789062 C 11.734375 26.554688 10.546875 30.53125 10.535156 30.574219 C 10.527344 30.609375 10.492188 30.632812 10.457031 30.632812 C 10.449219 30.632812 10.441406 30.632812 10.433594 30.628906 L 10.183594 30.554688 C 10.167969 30.582031 10.101562 30.726562 10.128906 30.960938 C 10.164062 31.234375 10.171875 31.3125 10.464844 31.441406 C 10.90625 31.636719 11.167969 31.941406 11.203125 32.300781 C 11.203125 32.339844 11.179688 32.378906 11.136719 32.386719 L 10.96875 32.425781 C 11.003906 32.507812 11.023438 32.570312 11.023438 32.578125 C 11.03125 32.601562 11.027344 32.628906 11.011719 32.648438 C 10.996094 32.667969 10.972656 32.683594 10.945312 32.683594 L 7.769531 32.695312 C 7.746094 32.695312 7.722656 32.6875 7.707031 32.671875 C 7.691406 32.65625 7.683594 32.632812 7.683594 32.609375 L 7.738281 30.671875 L 7.734375 30.671875 C 7.6875 30.671875 7.652344 30.636719 7.648438 30.59375 L 7.402344 20.132812 C 7.402344 20.121094 7.402344 20.109375 7.40625 20.097656 C 7.359375 20.078125 7.3125 20.046875 7.273438 20.007812 L 4.8125 17.554688 C 4.632812 17.378906 4.632812 17.089844 4.8125 16.914062 L 6.164062 15.585938 C 6.140625 15.492188 6.113281 15.390625 6.089844 15.285156 C 5.925781 14.644531 5.71875 13.847656 5.96875 13.265625 C 6.199219 12.738281 7.003906 12.519531 7.460938 12.433594 C 7.554688 12.417969 7.625 12.34375 7.632812 12.253906 C 7.636719 12.222656 7.636719 12.191406 7.636719 12.160156 C 7.636719 12.15625 7.632812 12.15625 7.628906 12.152344 L 7.429688 11.863281 C 7.375 11.78125 7.292969 11.726562 7.199219 11.707031 C 6.910156 11.644531 6.226562 11.414062 6.179688 10.6875 C 6.132812 10.363281 6.113281 9.902344 6.449219 9.667969 C 6.511719 9.625 6.574219 9.585938 6.628906 9.546875 C 6.804688 9.433594 6.929688 9.351562 7.03125 9.199219 C 7.09375 9.109375 7.414062 8.652344 7.71875 8.628906 C 7.777344 8.625 7.832031 8.632812 7.882812 8.660156 C 7.980469 8.527344 8.148438 8.386719 8.351562 8.460938 C 8.523438 8.523438 8.617188 8.664062 8.664062 8.769531 C 8.757812 8.707031 8.898438 8.640625 9.019531 8.71875 C 9.207031 8.839844 9.316406 9.351562 9.011719 9.960938 C 9.167969 10.15625 9.300781 10.421875 9.347656 10.773438 C 9.390625 11.097656 9.328125 11.34375 9.167969 11.5 C 9.023438 11.644531 8.835938 11.679688 8.71875 11.683594 L 8.757812 12.019531 C 8.769531 12.105469 8.84375 12.167969 8.9375 12.164062 L 9.6875 12.109375 L 9.6875 7.5 C 9.6875 7.183594 9.949219 6.925781 10.269531 6.925781 L 15.722656 6.925781 C 15.722656 6.902344 15.726562 6.871094 15.734375 6.84375 C 15.769531 6.6875 15.898438 6.566406 16.0625 6.53125 C 16.226562 6.5 16.464844 6.457031 16.660156 6.4375 C 17.023438 6.398438 17.351562 6.402344 17.722656 6.832031 C 17.730469 6.839844 17.734375 6.847656 17.734375 6.855469 L 18.566406 6.855469 C 18.570312 6.851562 18.570312 6.84375 18.574219 6.839844 C 18.628906 6.777344 19.890625 5.324219 21.132812 5 C 20.742188 4.597656 20.683594 3.925781 20.675781 3.808594 C 20.628906 3.707031 20.390625 3.15625 20.609375 2.804688 C 20.851562 2.414062 22.082031 2.046875 22.570312 2.214844 C 22.789062 2.289062 22.953125 2.601562 23.074219 2.941406 C 23.078125 2.949219 23.082031 2.957031 23.082031 2.96875 C 23.222656 3.367188 23.296875 3.796875 23.316406 3.910156 C 23.359375 3.980469 23.378906 4.054688 23.363281 4.128906 C 23.320312 4.335938 23.066406 4.507812 22.960938 4.570312 L 22.953125 4.726562 L 23.179688 4.886719 C 23.34375 4.894531 24.242188 4.953125 24.667969 5.304688 C 25.101562 5.664062 24.878906 6.335938 24.640625 6.804688 L 30.839844 6.804688 C 31.160156 6.804688 31.421875 7.0625 31.421875 7.378906 L 31.421875 22.949219 C 31.421875 22.992188 31.386719 23.03125 31.339844 23.03125 L 30.542969 23.03125 C 30.640625 23.285156 30.707031 23.464844 30.71875 23.515625 C 30.761719 23.675781 30.742188 23.8125 30.664062 23.917969 C 30.652344 23.933594 30.636719 23.949219 30.617188 23.964844 L 31.0625 23.964844 C 31.355469 23.964844 31.589844 24.199219 31.589844 24.480469 Z M 24.53125 23.964844 C 24.28125 23.8125 23.992188 23.523438 23.777344 23.285156 L 24.042969 23.964844 Z M 22.007812 22.609375 L 23.167969 22.609375 L 22.679688 22.101562 L 21.65625 22.101562 C 21.800781 22.308594 21.925781 22.484375 22.007812 22.609375 Z M 23.578125 22.800781 C 23.582031 22.800781 23.582031 22.800781 23.582031 22.804688 C 23.582031 22.804688 23.582031 22.804688 23.585938 22.804688 C 23.820312 23.097656 24.496094 23.871094 24.808594 23.910156 C 25.210938 23.957031 28.214844 23.972656 28.5 23.941406 C 28.539062 23.933594 28.578125 23.902344 28.617188 23.84375 C 28.753906 23.636719 28.832031 23.167969 28.734375 22.847656 C 28.613281 22.464844 27.816406 20.605469 27.671875 20.273438 L 25.777344 20.324219 L 25.28125 21.410156 C 25.269531 21.429688 25.25 21.449219 25.222656 21.453125 C 25.21875 21.457031 25.210938 21.457031 25.203125 21.457031 C 25.1875 21.457031 25.167969 21.449219 25.152344 21.4375 L 23.203125 19.953125 C 23.003906 20.027344 22.828125 20.074219 22.703125 20.082031 C 22.695312 20.082031 22.6875 20.082031 22.679688 20.082031 C 22.328125 20.082031 22.046875 19.730469 21.832031 19.363281 C 21.695312 19.34375 21.171875 19.289062 20.871094 19.648438 C 20.503906 20.085938 20.589844 20.652344 21.132812 21.378906 C 21.277344 21.574219 21.414062 21.761719 21.539062 21.9375 L 22.519531 21.9375 L 21.742188 21.125 C 21.710938 21.09375 21.710938 21.039062 21.746094 21.007812 C 21.777344 20.976562 21.832031 20.980469 21.863281 21.011719 L 22.769531 21.953125 C 22.773438 21.960938 22.78125 21.964844 22.785156 21.972656 Z M 19.84375 17.375 L 18.761719 17.960938 L 19.53125 18.703125 L 21.507812 18.703125 C 21.492188 18.675781 21.480469 18.648438 21.46875 18.625 L 21.445312 18.582031 C 21.285156 18.261719 21.082031 17.867188 20.84375 17.65625 C 20.726562 17.550781 20.65625 17.410156 20.617188 17.277344 C 20.503906 17.273438 20.410156 17.222656 20.34375 17.125 C 20.238281 16.96875 20.230469 16.703125 20.328125 16.542969 C 20.371094 16.46875 20.46875 16.378906 20.578125 16.292969 L 19.980469 16.027344 C 19.96875 16.023438 19.960938 16.015625 19.953125 16.007812 L 19.730469 15.773438 C 19.707031 15.75 19.699219 15.714844 19.714844 15.683594 C 19.722656 15.667969 19.734375 15.65625 19.75 15.648438 C 19.75 15.640625 19.746094 15.632812 19.746094 15.625 L 19.746094 14.828125 L 17.488281 13.5 L 15.339844 14.785156 L 15.339844 17.1875 L 17.503906 18.460938 L 19.761719 17.230469 C 19.804688 17.207031 19.855469 17.222656 19.875 17.261719 C 19.898438 17.300781 19.882812 17.351562 19.84375 17.375 Z M 11.292969 19.832031 L 14.917969 19.832031 L 16.328125 17.960938 L 15.210938 17.304688 C 15.1875 17.289062 15.171875 17.261719 15.171875 17.234375 L 15.171875 16.839844 L 12.746094 16.839844 C 12.726562 16.839844 12.707031 16.832031 12.691406 16.816406 L 12.117188 16.328125 L 11.882812 16.550781 C 11.917969 16.601562 11.933594 16.65625 11.921875 16.710938 C 11.898438 16.804688 11.800781 16.851562 11.636719 16.851562 C 11.765625 17.078125 11.820312 17.296875 11.789062 17.429688 C 11.769531 17.507812 11.71875 17.5625 11.648438 17.582031 C 11.578125 17.601562 11.507812 17.589844 11.445312 17.554688 C 11.429688 17.546875 11.417969 17.535156 11.40625 17.527344 C 11.386719 17.550781 11.363281 17.574219 11.332031 17.589844 C 11.277344 17.621094 11.21875 17.625 11.167969 17.613281 C 11.160156 17.699219 11.128906 17.777344 11.03125 17.804688 C 10.980469 17.820312 10.933594 17.820312 10.890625 17.8125 C 10.886719 17.820312 10.882812 17.828125 10.878906 17.835938 C 10.878906 17.839844 10.875 17.84375 10.871094 17.84375 C 10.917969 18.046875 11.097656 18.835938 11.292969 19.832031 Z M 10.722656 17.757812 C 10.726562 17.753906 10.730469 17.753906 10.734375 17.75 C 10.738281 17.742188 10.734375 17.722656 10.734375 17.71875 C 10.71875 17.683594 10.730469 17.640625 10.765625 17.617188 C 10.796875 17.597656 10.839844 17.601562 10.871094 17.628906 C 10.875 17.632812 10.917969 17.667969 10.984375 17.648438 C 11.003906 17.640625 11.007812 17.566406 10.992188 17.507812 C 10.980469 17.472656 10.996094 17.4375 11.023438 17.417969 C 11.054688 17.398438 11.09375 17.398438 11.121094 17.421875 C 11.121094 17.421875 11.195312 17.476562 11.257812 17.445312 C 11.28125 17.429688 11.28125 17.355469 11.265625 17.292969 C 11.261719 17.285156 11.261719 17.277344 11.261719 17.273438 C 11.25 17.230469 11.277344 17.1875 11.320312 17.175781 C 11.363281 17.164062 11.410156 17.1875 11.421875 17.230469 C 11.421875 17.234375 11.425781 17.242188 11.425781 17.25 C 11.441406 17.292969 11.476562 17.382812 11.53125 17.414062 C 11.554688 17.425781 11.578125 17.429688 11.605469 17.421875 C 11.609375 17.421875 11.621094 17.417969 11.628906 17.390625 C 11.664062 17.234375 11.492188 16.808594 11.128906 16.488281 C 11.097656 16.457031 11.09375 16.40625 11.125 16.371094 C 11.15625 16.339844 11.207031 16.335938 11.242188 16.367188 C 11.351562 16.464844 11.445312 16.570312 11.527344 16.679688 C 11.722656 16.703125 11.761719 16.664062 11.761719 16.664062 C 11.757812 16.648438 11.699219 16.570312 11.582031 16.523438 C 11.457031 16.476562 11.363281 16.375 11.261719 16.265625 C 11.148438 16.144531 11.035156 16.023438 10.878906 15.976562 C 10.605469 15.886719 10.3125 16.101562 10.3125 16.105469 C 10.292969 16.117188 10.273438 16.121094 10.253906 16.121094 C 10.199219 16.117188 9.40625 16.050781 8.761719 15.988281 C 8.679688 16.152344 8.375 16.824219 8.835938 17.210938 C 9.410156 17.097656 9.867188 16.984375 9.875 16.980469 C 9.910156 16.972656 9.945312 16.984375 9.964844 17.011719 C 10.25 17.417969 10.574219 17.769531 10.664062 17.769531 C 10.695312 17.769531 10.714844 17.765625 10.722656 17.757812 Z M 7.6875 14.375 C 7.769531 14.960938 7.882812 15.535156 7.972656 15.699219 L 14.539062 9.648438 L 14.046875 9.1875 C 13.882812 9.03125 13.625 9.03125 13.457031 9.179688 Z M 8.148438 15.761719 C 8.585938 15.8125 9.726562 15.914062 10.234375 15.957031 C 10.328125 15.894531 10.625 15.722656 10.929688 15.820312 C 11.128906 15.882812 11.261719 16.027344 11.382812 16.15625 C 11.46875 16.25 11.550781 16.339844 11.640625 16.375 C 11.683594 16.390625 11.726562 16.410156 11.761719 16.4375 L 13.851562 14.464844 C 13.851562 14.464844 13.851562 14.464844 13.851562 14.460938 L 14.359375 13.992188 C 14.375 13.972656 14.441406 13.859375 14.355469 13.671875 C 14.320312 13.597656 14.28125 13.53125 14.242188 13.460938 C 14.148438 13.296875 14.039062 13.113281 14.207031 13.015625 C 14.28125 12.972656 14.367188 12.964844 14.445312 12.996094 C 14.453125 13 14.460938 13.003906 14.46875 13.007812 C 14.472656 12.878906 14.523438 12.746094 14.671875 12.664062 C 14.824219 12.585938 14.957031 12.566406 15.074219 12.605469 C 15.082031 12.511719 15.121094 12.417969 15.230469 12.386719 C 15.304688 12.367188 15.386719 12.378906 15.46875 12.425781 C 15.566406 12.480469 15.652344 12.582031 15.707031 12.703125 L 16.386719 11.945312 C 16.542969 11.773438 16.53125 11.515625 16.363281 11.355469 L 14.660156 9.757812 C 14.65625 9.761719 14.65625 9.765625 14.652344 9.765625 Z M 14.488281 14.097656 C 14.484375 14.101562 14.484375 14.101562 14.480469 14.105469 L 14.121094 14.441406 C 14.757812 14.394531 15.226562 13.953125 15.488281 13.707031 C 15.75 13.460938 15.683594 13.203125 15.617188 12.953125 C 15.609375 12.925781 15.601562 12.902344 15.597656 12.882812 C 15.554688 12.714844 15.457031 12.609375 15.382812 12.566406 C 15.34375 12.546875 15.304688 12.539062 15.277344 12.546875 C 15.226562 12.558594 15.242188 12.683594 15.253906 12.726562 C 15.253906 12.726562 15.253906 12.730469 15.253906 12.730469 C 15.300781 12.785156 15.339844 12.859375 15.375 12.949219 C 15.476562 13.230469 15.535156 13.460938 15.535156 13.46875 C 15.546875 13.511719 15.519531 13.558594 15.472656 13.566406 C 15.46875 13.570312 15.460938 13.570312 15.457031 13.570312 C 15.417969 13.570312 15.382812 13.542969 15.375 13.507812 C 15.375 13.503906 15.316406 13.273438 15.21875 13.003906 C 15.167969 12.871094 15.105469 12.789062 15.023438 12.761719 C 14.980469 12.746094 14.929688 12.75 14.871094 12.761719 C 14.957031 12.847656 15.070312 12.992188 15.117188 13.191406 C 15.195312 13.507812 15.21875 13.667969 15.21875 13.675781 C 15.226562 13.71875 15.191406 13.761719 15.148438 13.765625 C 15.144531 13.765625 15.140625 13.765625 15.136719 13.765625 C 15.09375 13.765625 15.058594 13.738281 15.054688 13.695312 C 15.054688 13.695312 15.03125 13.539062 14.957031 13.230469 C 14.90625 13.03125 14.777344 12.898438 14.710938 12.839844 C 14.574219 12.957031 14.65625 13.175781 14.679688 13.230469 C 14.757812 13.363281 14.828125 13.546875 14.890625 13.78125 C 14.902344 13.824219 14.875 13.871094 14.832031 13.878906 C 14.785156 13.890625 14.738281 13.863281 14.730469 13.820312 C 14.664062 13.578125 14.601562 13.421875 14.542969 13.324219 C 14.539062 13.320312 14.535156 13.316406 14.535156 13.3125 C 14.535156 13.3125 14.53125 13.308594 14.53125 13.304688 C 14.464844 13.199219 14.410156 13.160156 14.378906 13.148438 C 14.347656 13.136719 14.320312 13.140625 14.289062 13.15625 C 14.285156 13.160156 14.285156 13.160156 14.285156 13.160156 C 14.273438 13.191406 14.34375 13.308594 14.386719 13.382812 C 14.421875 13.449219 14.46875 13.523438 14.503906 13.605469 C 14.644531 13.90625 14.492188 14.089844 14.488281 14.097656 Z M 23.101562 15.238281 L 23.101562 13.242188 L 21.53125 13.242188 L 19.914062 14.816406 L 19.914062 15.625 C 19.914062 15.632812 19.914062 15.636719 19.910156 15.640625 L 20.105469 15.648438 C 20.113281 15.648438 20.117188 15.648438 20.125 15.652344 L 20.78125 15.820312 C 20.988281 15.621094 21.308594 15.652344 21.519531 15.789062 C 21.675781 15.890625 21.835938 16.027344 21.898438 16.25 C 21.898438 16.25 21.898438 16.25 21.902344 16.25 L 22.582031 16.507812 C 22.648438 16.53125 22.703125 16.582031 22.730469 16.648438 C 22.761719 16.714844 22.761719 16.785156 22.734375 16.851562 C 22.710938 16.921875 22.65625 16.972656 22.589844 17 C 22.554688 17.015625 22.519531 17.019531 22.484375 17.019531 C 22.449219 17.019531 22.414062 17.015625 22.378906 17 L 21.941406 16.820312 C 21.960938 17.011719 21.988281 17.191406 21.996094 17.253906 L 23.023438 18.476562 C 23.539062 18.085938 24.539062 17.347656 24.929688 17.164062 C 25.335938 16.96875 25.832031 16.90625 26.054688 16.886719 L 25.863281 16.382812 C 25.691406 16.40625 25.542969 16.375 25.417969 16.292969 C 25.207031 16.15625 25.132812 15.910156 25.109375 15.820312 C 25.078125 15.796875 25.039062 15.761719 25.011719 15.726562 C 25 15.730469 24.988281 15.734375 24.976562 15.734375 L 23.601562 15.734375 C 23.324219 15.734375 23.101562 15.511719 23.101562 15.238281 Z M 29.117188 18.640625 C 29.140625 18.617188 29.179688 18.609375 29.210938 18.621094 C 29.21875 18.628906 29.492188 18.738281 29.675781 18.550781 C 29.871094 18.351562 29.707031 18 29.484375 17.738281 C 29.230469 17.4375 28.667969 16.523438 28.550781 15.621094 C 28.4375 14.738281 28.21875 14.269531 27.394531 14.335938 C 27.363281 14.335938 27.335938 14.324219 27.316406 14.300781 C 27.308594 14.285156 27.0625 13.941406 26.492188 13.9375 C 26.488281 13.9375 26.488281 13.9375 26.484375 13.9375 C 26.003906 13.9375 25.5625 14.371094 25.429688 14.511719 C 25.605469 14.777344 25.996094 15.328125 26.230469 15.445312 C 26.304688 15.410156 26.460938 15.347656 26.582031 15.394531 C 26.628906 15.414062 26.683594 15.453125 26.710938 15.542969 C 26.730469 15.613281 26.722656 15.683594 26.683594 15.742188 C 26.625 15.832031 26.515625 15.882812 26.441406 15.90625 L 26.484375 16.300781 C 26.574219 16.292969 26.714844 16.289062 26.808594 16.3125 C 26.8125 16.21875 26.824219 16.148438 26.824219 16.128906 C 26.828125 16.105469 26.839844 16.085938 26.859375 16.070312 C 26.875 16.058594 26.898438 16.050781 26.921875 16.054688 C 26.933594 16.058594 27.179688 16.09375 27.355469 15.785156 C 27.371094 15.757812 27.40625 15.738281 27.441406 15.746094 C 27.480469 15.753906 27.503906 15.78125 27.511719 15.816406 C 27.515625 15.863281 27.667969 17.023438 27.519531 17.535156 C 27.457031 17.746094 27.394531 17.859375 27.347656 17.949219 C 27.28125 18.070312 27.246094 18.140625 27.25 18.390625 C 27.253906 18.621094 27.378906 18.839844 27.550781 18.917969 C 27.691406 18.980469 27.847656 18.945312 28.007812 18.816406 C 28.023438 18.804688 28.042969 18.800781 28.0625 18.800781 C 28.070312 18.800781 28.078125 18.800781 28.085938 18.800781 C 28.109375 18.808594 28.132812 18.828125 28.140625 18.855469 C 28.148438 18.875 28.320312 19.359375 28.785156 19.222656 C 28.941406 19.175781 29.042969 19.101562 29.089844 19.003906 C 29.15625 18.871094 29.097656 18.730469 29.097656 18.726562 C 29.085938 18.699219 29.09375 18.664062 29.117188 18.640625 Z M 27.8125 20.179688 C 27.914062 20.414062 28.761719 22.390625 28.890625 22.800781 C 28.890625 22.800781 28.894531 22.804688 28.894531 22.804688 L 29.152344 22.804688 L 27.847656 19.945312 Z M 28.9375 23.289062 L 29.300781 23.128906 L 29.226562 22.96875 L 28.929688 22.96875 C 28.941406 23.070312 28.945312 23.179688 28.9375 23.289062 Z M 29.238281 22.597656 C 29.253906 22.605469 29.84375 22.800781 30.136719 22.445312 C 29.769531 21.515625 29.246094 20.214844 28.902344 19.355469 C 28.882812 19.363281 28.859375 19.371094 28.835938 19.378906 C 28.761719 19.402344 28.691406 19.410156 28.625 19.410156 C 28.320312 19.410156 28.121094 19.191406 28.027344 19.007812 C 28.011719 19.019531 27.996094 19.027344 27.980469 19.035156 L 27.890625 19.644531 C 27.894531 19.648438 27.898438 19.652344 27.898438 19.660156 Z M 26.84375 16.753906 C 26.824219 16.667969 26.8125 16.574219 26.808594 16.484375 C 26.804688 16.480469 26.796875 16.480469 26.789062 16.476562 C 26.738281 16.453125 26.558594 16.457031 26.417969 16.46875 C 26.398438 16.472656 26.375 16.464844 26.359375 16.453125 C 26.339844 16.4375 26.328125 16.417969 26.328125 16.398438 L 26.273438 15.851562 C 26.269531 15.808594 26.296875 15.769531 26.339844 15.761719 C 26.378906 15.757812 26.503906 15.71875 26.542969 15.65625 C 26.558594 15.636719 26.558594 15.613281 26.550781 15.585938 C 26.542969 15.554688 26.527344 15.550781 26.523438 15.546875 C 26.46875 15.523438 26.34375 15.570312 26.277344 15.609375 C 26.257812 15.621094 26.230469 15.621094 26.207031 15.613281 C 25.988281 15.535156 25.683594 15.15625 25.476562 14.871094 C 25.421875 14.960938 25.34375 15.113281 25.34375 15.296875 C 25.34375 15.296875 25.34375 15.300781 25.34375 15.304688 C 25.328125 15.414062 25.1875 15.519531 25.097656 15.566406 C 25.121094 15.609375 25.175781 15.671875 25.226562 15.699219 C 25.246094 15.710938 25.261719 15.730469 25.265625 15.757812 C 25.265625 15.757812 25.273438 15.804688 25.296875 15.867188 C 25.316406 15.878906 25.332031 15.886719 25.351562 15.894531 C 25.382812 15.90625 25.414062 15.914062 25.445312 15.914062 C 25.507812 15.921875 25.570312 15.902344 25.632812 15.871094 C 25.644531 15.863281 25.660156 15.867188 25.667969 15.878906 C 25.671875 15.890625 25.667969 15.902344 25.660156 15.910156 C 25.628906 15.933594 25.597656 15.957031 25.558594 15.96875 C 25.523438 15.984375 25.480469 15.988281 25.441406 15.988281 C 25.40625 15.988281 25.375 15.980469 25.34375 15.96875 C 25.382812 16.035156 25.4375 16.105469 25.511719 16.15625 C 25.617188 16.226562 25.746094 16.242188 25.898438 16.210938 C 25.9375 16.203125 25.980469 16.222656 25.992188 16.261719 L 26.210938 16.835938 C 26.324219 16.78125 26.539062 16.710938 26.84375 16.753906 Z M 27.066406 16.855469 C 27.175781 16.976562 27.347656 17.015625 27.417969 17.027344 C 27.425781 16.679688 27.394531 16.28125 27.371094 16.042969 C 27.230469 16.183594 27.078125 16.214844 26.984375 16.21875 C 26.964844 16.4375 26.972656 16.753906 27.066406 16.855469 Z M 30.210938 15.511719 C 30.296875 15.511719 30.378906 15.476562 30.441406 15.414062 C 30.503906 15.351562 30.539062 15.265625 30.539062 15.175781 L 30.523438 9.855469 C 30.523438 9.671875 30.375 9.523438 30.191406 9.523438 L 23.597656 9.523438 C 23.417969 9.523438 23.269531 9.671875 23.269531 9.855469 L 23.269531 15.238281 C 23.269531 15.421875 23.417969 15.570312 23.597656 15.570312 L 24.921875 15.570312 C 24.917969 15.554688 24.914062 15.539062 24.917969 15.527344 C 24.921875 15.484375 24.949219 15.449219 24.992188 15.4375 C 25.046875 15.417969 25.167969 15.328125 25.175781 15.289062 C 25.179688 15.019531 25.308594 14.816406 25.375 14.722656 C 25.316406 14.632812 25.273438 14.566406 25.257812 14.542969 C 25.238281 14.515625 25.242188 14.476562 25.265625 14.449219 C 25.289062 14.421875 25.832031 13.773438 26.484375 13.773438 C 26.488281 13.773438 26.492188 13.773438 26.492188 13.773438 C 27.042969 13.777344 27.335938 14.0625 27.425781 14.167969 C 28.394531 14.109375 28.601562 14.785156 28.707031 15.507812 L 30.210938 15.507812 Z M 21.941406 17.445312 L 21.851562 17.339844 C 21.84375 17.328125 21.839844 17.316406 21.835938 17.300781 C 21.832031 17.28125 21.75 16.800781 21.757812 16.476562 C 21.761719 16.203125 21.628906 16.058594 21.425781 15.925781 C 21.265625 15.820312 21.015625 15.796875 20.871094 15.964844 C 20.867188 15.96875 20.863281 15.976562 20.859375 15.980469 C 20.902344 15.988281 20.976562 15.984375 21.011719 15.980469 C 21.039062 15.980469 21.0625 15.980469 21.078125 15.980469 C 21.085938 15.980469 21.09375 15.980469 21.097656 15.984375 C 21.238281 15.996094 21.390625 16.144531 21.421875 16.175781 C 21.453125 16.207031 21.453125 16.261719 21.421875 16.289062 C 21.386719 16.324219 21.335938 16.320312 21.300781 16.289062 C 21.25 16.234375 21.152344 16.160156 21.097656 16.148438 C 21.058594 16.171875 21.003906 16.203125 20.949219 16.238281 L 21.25 16.339844 C 21.292969 16.351562 21.316406 16.398438 21.300781 16.441406 C 21.289062 16.476562 21.257812 16.5 21.222656 16.5 C 21.214844 16.5 21.207031 16.496094 21.195312 16.492188 L 20.789062 16.359375 C 20.785156 16.355469 20.78125 16.355469 20.777344 16.351562 C 20.753906 16.371094 20.730469 16.386719 20.707031 16.40625 L 21.054688 16.515625 C 21.097656 16.527344 21.121094 16.574219 21.109375 16.617188 C 21.097656 16.652344 21.066406 16.675781 21.027344 16.675781 C 21.019531 16.675781 21.011719 16.671875 21.003906 16.671875 L 20.554688 16.53125 C 20.515625 16.566406 20.488281 16.597656 20.46875 16.628906 C 20.410156 16.726562 20.40625 16.921875 20.484375 17.035156 C 20.507812 17.074219 20.539062 17.097656 20.578125 17.105469 C 20.558594 16.980469 20.558594 16.886719 20.558594 16.878906 C 20.558594 16.832031 20.597656 16.796875 20.640625 16.796875 C 20.6875 16.796875 20.722656 16.835938 20.722656 16.878906 C 20.722656 16.882812 20.722656 17.328125 20.953125 17.535156 C 21.046875 17.617188 21.136719 17.726562 21.21875 17.847656 C 21.324219 17.722656 21.570312 17.46875 21.941406 17.445312 Z M 20.734375 16.183594 C 20.757812 16.167969 20.78125 16.152344 20.800781 16.136719 C 20.753906 16.125 20.710938 16.101562 20.691406 16.058594 C 20.671875 16.027344 20.675781 15.992188 20.683594 15.964844 L 20.089844 15.8125 L 19.988281 15.808594 L 20.0625 15.886719 L 20.730469 16.179688 C 20.730469 16.183594 20.730469 16.183594 20.734375 16.183594 Z M 21.925781 16.636719 L 22.445312 16.847656 C 22.46875 16.859375 22.5 16.859375 22.523438 16.847656 C 22.550781 16.839844 22.570312 16.820312 22.582031 16.792969 C 22.589844 16.765625 22.589844 16.738281 22.582031 16.714844 C 22.570312 16.6875 22.546875 16.671875 22.523438 16.660156 L 21.925781 16.4375 C 21.925781 16.449219 21.925781 16.464844 21.925781 16.480469 C 21.925781 16.527344 21.925781 16.582031 21.925781 16.636719 Z M 21.707031 18.738281 C 21.882812 19.121094 22.246094 19.917969 22.679688 19.917969 C 22.6875 19.917969 22.691406 19.917969 22.695312 19.917969 C 23.253906 19.890625 25.058594 18.863281 25.078125 18.851562 C 25.117188 18.828125 25.167969 18.84375 25.191406 18.882812 C 25.214844 18.921875 25.203125 18.972656 25.160156 18.992188 C 25.152344 19 25.105469 19.027344 25.03125 19.066406 L 25.765625 20.160156 L 27.652344 20.109375 L 27.800781 19.101562 C 27.691406 19.121094 27.585938 19.113281 27.484375 19.066406 C 27.253906 18.960938 27.09375 18.691406 27.085938 18.394531 C 27.078125 18.101562 27.128906 18.003906 27.199219 17.875 C 27.246094 17.789062 27.300781 17.6875 27.359375 17.492188 C 27.382812 17.410156 27.398438 17.308594 27.40625 17.195312 C 27.332031 17.183594 27.097656 17.140625 26.941406 16.964844 C 26.933594 16.957031 26.925781 16.945312 26.917969 16.9375 C 26.488281 16.835938 26.25 17.003906 26.230469 17.019531 C 26.214844 17.035156 26.195312 17.042969 26.175781 17.042969 C 26.167969 17.042969 25.5 17.074219 25 17.3125 C 24.496094 17.550781 22.828125 18.832031 22.8125 18.84375 C 22.796875 18.855469 22.777344 18.863281 22.761719 18.863281 C 22.734375 18.863281 22.710938 18.851562 22.695312 18.832031 C 22.664062 18.796875 22.671875 18.742188 22.707031 18.714844 C 22.722656 18.707031 22.789062 18.652344 22.890625 18.578125 L 22.078125 17.609375 C 22.074219 17.609375 22.070312 17.609375 22.066406 17.609375 C 21.632812 17.566406 21.359375 17.9375 21.316406 17.996094 C 21.421875 18.167969 21.515625 18.347656 21.597656 18.507812 L 21.617188 18.550781 C 21.640625 18.601562 21.671875 18.664062 21.707031 18.738281 Z M 23.382812 19.882812 L 25.171875 21.246094 L 25.628906 20.25 L 24.886719 19.148438 C 24.53125 19.339844 23.90625 19.671875 23.382812 19.882812 Z M 30.558594 23.554688 C 30.539062 23.484375 30.402344 23.121094 30.203125 22.617188 C 30.035156 22.777344 29.816406 22.824219 29.625 22.824219 C 29.511719 22.824219 29.40625 22.808594 29.328125 22.792969 L 29.621094 23.433594 C 29.640625 23.472656 29.621094 23.523438 29.578125 23.539062 C 29.566406 23.546875 29.554688 23.546875 29.542969 23.546875 C 29.511719 23.546875 29.480469 23.53125 29.46875 23.5 L 29.367188 23.28125 L 28.917969 23.480469 C 28.90625 23.539062 28.894531 23.597656 28.878906 23.648438 C 28.988281 23.597656 29.132812 23.539062 29.28125 23.539062 C 29.324219 23.539062 29.363281 23.578125 29.363281 23.621094 C 29.363281 23.667969 29.324219 23.703125 29.28125 23.703125 C 29.054688 23.703125 28.804688 23.882812 28.804688 23.886719 C 28.792969 23.890625 28.785156 23.894531 28.777344 23.898438 C 28.773438 23.902344 28.773438 23.90625 28.769531 23.910156 C 29.121094 23.914062 30.089844 23.925781 30.308594 23.914062 C 30.378906 23.910156 30.476562 23.890625 30.53125 23.820312 C 30.578125 23.757812 30.585938 23.664062 30.558594 23.554688 Z M 23.167969 3.988281 C 23.113281 3.933594 23.054688 3.902344 22.996094 3.910156 C 22.875 3.921875 22.757812 4.0625 22.722656 4.117188 C 22.707031 4.144531 22.671875 4.160156 22.636719 4.15625 C 22.605469 4.148438 22.578125 4.125 22.570312 4.089844 C 22.570312 4.085938 22.496094 3.730469 22.320312 3.539062 C 22.3125 3.53125 22.308594 3.523438 22.304688 3.515625 C 21.714844 3.765625 21.078125 3.84375 20.851562 3.863281 C 20.875 4.082031 20.972656 4.695312 21.367188 4.984375 C 21.582031 5.144531 21.859375 5.179688 22.1875 5.097656 C 22.21875 5.089844 22.25 5.101562 22.273438 5.121094 C 22.292969 5.144531 22.300781 5.179688 22.289062 5.207031 C 22.289062 5.207031 22.257812 5.289062 22.292969 5.335938 C 22.324219 5.375 22.410156 5.390625 22.527344 5.382812 C 22.839844 5.355469 22.996094 5.105469 23.050781 4.996094 L 22.820312 4.835938 C 22.796875 4.820312 22.785156 4.792969 22.785156 4.765625 L 22.800781 4.519531 C 22.800781 4.492188 22.816406 4.464844 22.84375 4.453125 C 22.933594 4.402344 23.171875 4.242188 23.203125 4.097656 C 23.207031 4.058594 23.199219 4.023438 23.167969 3.988281 Z M 22.960938 3.128906 C 22.808594 3.257812 22.636719 3.359375 22.457031 3.449219 C 22.574219 3.582031 22.648438 3.769531 22.691406 3.898438 C 22.761719 3.828125 22.863281 3.757812 22.980469 3.746094 C 23.027344 3.742188 23.074219 3.746094 23.121094 3.761719 C 23.082031 3.5625 23.027344 3.339844 22.960938 3.128906 Z M 20.75 2.890625 C 20.734375 2.917969 20.722656 2.949219 20.710938 2.980469 C 20.84375 2.980469 21.453125 2.960938 22.074219 2.667969 C 22.117188 2.648438 22.164062 2.667969 22.1875 2.707031 C 22.207031 2.746094 22.1875 2.796875 22.144531 2.816406 C 21.503906 3.121094 20.886719 3.144531 20.722656 3.144531 C 20.703125 3.144531 20.691406 3.144531 20.6875 3.144531 C 20.679688 3.347656 20.757812 3.574219 20.8125 3.703125 C 21.085938 3.675781 22.269531 3.539062 22.902344 2.960938 C 22.792969 2.660156 22.660156 2.417969 22.515625 2.371094 C 22.445312 2.34375 22.359375 2.335938 22.261719 2.335938 C 21.738281 2.335938 20.90625 2.640625 20.75 2.890625 Z M 18.78125 6.855469 L 20.855469 6.855469 L 20.609375 6.371094 C 20.589844 6.332031 20.605469 6.28125 20.644531 6.261719 C 20.6875 6.242188 20.738281 6.257812 20.757812 6.296875 L 21.039062 6.855469 L 22.601562 6.855469 L 22.996094 6.269531 C 23.023438 6.230469 23.074219 6.222656 23.113281 6.246094 C 23.152344 6.273438 23.160156 6.324219 23.136719 6.359375 L 21.6875 8.511719 C 21.863281 8.523438 21.976562 8.527344 21.976562 8.527344 L 21.964844 8.691406 C 21.964844 8.691406 21.800781 8.683594 21.554688 8.667969 C 21.546875 8.671875 21.542969 8.671875 21.535156 8.671875 C 21.523438 8.671875 21.515625 8.667969 21.507812 8.667969 C 21.488281 8.664062 21.46875 8.664062 21.449219 8.664062 C 21.59375 8.855469 21.820312 9.25 21.683594 9.6875 C 22.027344 9.722656 22.339844 9.722656 22.570312 9.5625 C 22.902344 9.335938 23.675781 8.078125 24.089844 7.40625 C 24.175781 7.265625 24.25 7.144531 24.308594 7.054688 C 24.484375 6.773438 25.027344 5.820312 24.558594 5.429688 C 24.203125 5.132812 23.421875 5.066406 23.207031 5.050781 C 23.140625 5.1875 22.949219 5.507812 22.542969 5.542969 C 22.355469 5.5625 22.226562 5.523438 22.15625 5.433594 C 22.121094 5.382812 22.109375 5.332031 22.105469 5.28125 C 21.789062 5.339844 21.511719 5.289062 21.285156 5.128906 C 21.28125 5.132812 21.277344 5.132812 21.277344 5.132812 C 20.226562 5.351562 19.089844 6.519531 18.78125 6.855469 Z M 18.820312 9.414062 C 18.820312 9.382812 18.835938 9.355469 18.859375 9.34375 C 18.886719 9.328125 18.917969 9.328125 18.941406 9.34375 C 19.261719 9.523438 19.667969 9.339844 19.671875 9.339844 C 19.691406 9.332031 19.710938 9.328125 19.730469 9.335938 C 19.738281 9.335938 20.339844 9.523438 20.949219 9.589844 C 21.074219 9.605469 21.203125 9.625 21.324219 9.640625 C 21.386719 9.648438 21.453125 9.660156 21.515625 9.667969 C 21.699219 9.144531 21.234375 8.664062 21.222656 8.652344 C 20.53125 8.613281 19.5625 8.558594 19.265625 8.542969 C 18.933594 8.523438 18.613281 8.453125 18.355469 8.398438 C 18.234375 8.371094 18.128906 8.347656 18.042969 8.335938 C 17.851562 8.308594 17.695312 8.429688 17.519531 8.746094 C 17.363281 9.023438 17.296875 9.289062 17.332031 9.359375 C 17.332031 9.367188 17.332031 9.367188 17.335938 9.367188 C 17.417969 9.382812 17.417969 9.382812 17.46875 9.253906 C 17.484375 9.222656 17.496094 9.183594 17.515625 9.144531 C 17.644531 8.851562 17.875 8.882812 17.882812 8.882812 C 17.921875 8.890625 17.953125 8.921875 17.953125 8.964844 C 17.953125 9.007812 17.949219 9.058594 17.949219 9.121094 C 17.941406 9.277344 17.929688 9.496094 17.972656 9.628906 C 17.980469 9.652344 17.992188 9.683594 18.015625 9.691406 C 18.023438 9.695312 18.03125 9.695312 18.042969 9.695312 C 18.039062 9.527344 18.039062 9.058594 18.085938 8.859375 C 18.09375 8.816406 18.136719 8.789062 18.183594 8.800781 C 18.226562 8.808594 18.257812 8.851562 18.246094 8.898438 C 18.203125 9.085938 18.207031 9.574219 18.210938 9.714844 C 18.234375 9.730469 18.292969 9.753906 18.394531 9.765625 C 18.394531 9.59375 18.398438 9.15625 18.457031 8.949219 C 18.472656 8.90625 18.519531 8.878906 18.5625 8.890625 C 18.605469 8.90625 18.632812 8.949219 18.621094 8.992188 C 18.5625 9.183594 18.558594 9.613281 18.558594 9.773438 C 18.808594 9.765625 18.816406 9.425781 18.820312 9.414062 Z M 16.464844 6.628906 C 16.464844 6.632812 16.464844 6.636719 16.464844 6.636719 C 16.375 6.832031 16.421875 7.078125 16.464844 7.21875 C 16.5 7.160156 16.527344 7.089844 16.542969 7.03125 C 16.546875 6.980469 16.554688 6.796875 16.613281 6.695312 C 16.640625 6.660156 16.691406 6.644531 16.730469 6.667969 C 16.769531 6.691406 16.78125 6.742188 16.757812 6.78125 C 16.726562 6.832031 16.710938 6.964844 16.710938 7.042969 C 16.710938 7.132812 16.742188 7.324219 16.828125 7.324219 C 16.875 7.324219 16.945312 7.066406 16.945312 6.75 C 16.945312 6.707031 16.984375 6.667969 17.03125 6.667969 C 17.074219 6.667969 17.113281 6.707031 17.113281 6.75 C 17.113281 6.78125 17.113281 6.816406 17.109375 6.855469 L 17.519531 6.855469 C 17.234375 6.570312 16.988281 6.570312 16.679688 6.601562 C 16.613281 6.609375 16.539062 6.617188 16.464844 6.628906 Z M 16.328125 7.335938 C 16.285156 7.210938 16.203125 6.921875 16.277344 6.660156 C 16.230469 6.667969 16.183594 6.675781 16.144531 6.683594 C 16.058594 6.929688 16.179688 7.246094 16.214844 7.332031 C 16.25 7.335938 16.285156 7.335938 16.328125 7.335938 Z M 15.898438 7.09375 C 15.917969 7.171875 15.957031 7.230469 16.015625 7.269531 C 15.972656 7.144531 15.929688 6.957031 15.953125 6.773438 C 15.925781 6.804688 15.90625 6.839844 15.894531 6.878906 C 15.882812 6.949219 15.882812 7.023438 15.898438 7.09375 Z M 9.855469 12.097656 L 9.972656 12.085938 C 9.976562 12.085938 9.980469 12.089844 9.980469 12.089844 L 10.710938 11.429688 L 10.578125 11.429688 C 10.53125 11.429688 10.496094 11.394531 10.496094 11.347656 C 10.496094 11.304688 10.53125 11.265625 10.578125 11.265625 L 10.894531 11.265625 L 11.210938 10.980469 L 10.578125 10.980469 C 10.53125 10.980469 10.496094 10.945312 10.496094 10.898438 C 10.496094 10.855469 10.53125 10.816406 10.578125 10.816406 L 11.394531 10.816406 L 11.691406 10.550781 L 10.589844 10.550781 C 10.542969 10.550781 10.507812 10.515625 10.507812 10.46875 C 10.507812 10.425781 10.542969 10.386719 10.589844 10.386719 L 11.871094 10.386719 L 12.28125 10.019531 L 10.570312 10.019531 C 10.523438 10.019531 10.484375 9.984375 10.484375 9.9375 C 10.484375 9.894531 10.523438 9.855469 10.570312 9.855469 L 12.453125 9.855469 C 12.457031 9.855469 12.457031 9.859375 12.460938 9.859375 L 12.757812 9.589844 L 10.558594 9.589844 C 10.511719 9.589844 10.476562 9.554688 10.476562 9.507812 C 10.476562 9.464844 10.511719 9.425781 10.558594 9.425781 L 12.921875 9.425781 C 12.925781 9.425781 12.929688 9.429688 12.933594 9.429688 L 13.34375 9.058594 C 13.578125 8.851562 13.9375 8.855469 14.164062 9.066406 L 14.578125 9.457031 L 16.632812 9.457031 C 16.679688 9.457031 16.71875 9.496094 16.71875 9.539062 C 16.71875 9.585938 16.679688 9.621094 16.632812 9.621094 L 14.753906 9.621094 L 15.007812 9.859375 C 15.011719 9.859375 15.015625 9.855469 15.023438 9.855469 L 16.570312 9.855469 C 16.617188 9.855469 16.65625 9.894531 16.65625 9.9375 C 16.65625 9.984375 16.617188 10.019531 16.570312 10.019531 L 15.179688 10.019531 L 15.558594 10.378906 L 16.625 10.378906 C 16.667969 10.378906 16.707031 10.414062 16.707031 10.460938 C 16.707031 10.503906 16.667969 10.539062 16.625 10.539062 L 15.734375 10.539062 L 16.027344 10.816406 L 16.582031 10.816406 C 16.628906 10.816406 16.664062 10.855469 16.664062 10.898438 C 16.664062 10.945312 16.628906 10.980469 16.582031 10.980469 L 16.203125 10.980469 L 16.476562 11.238281 C 16.710938 11.457031 16.726562 11.816406 16.511719 12.054688 L 15.769531 12.882812 C 15.769531 12.890625 15.773438 12.898438 15.777344 12.910156 C 15.847656 13.175781 15.9375 13.511719 15.601562 13.824219 C 15.328125 14.082031 14.769531 14.605469 14.007812 14.605469 C 13.984375 14.605469 13.964844 14.605469 13.941406 14.605469 L 12.234375 16.214844 L 12.773438 16.675781 L 15.171875 16.675781 L 15.171875 14.738281 C 15.171875 14.710938 15.183594 14.683594 15.210938 14.671875 L 17.441406 13.335938 C 17.46875 13.320312 17.503906 13.320312 17.527344 13.335938 L 19.816406 14.679688 L 21.433594 13.101562 C 21.449219 13.085938 21.472656 13.078125 21.492188 13.078125 L 23.101562 13.078125 L 23.101562 9.855469 C 23.101562 9.582031 23.324219 9.359375 23.597656 9.359375 L 30.191406 9.359375 C 30.464844 9.359375 30.6875 9.582031 30.6875 9.855469 L 30.707031 15.175781 C 30.707031 15.308594 30.652344 15.4375 30.558594 15.53125 C 30.464844 15.621094 30.339844 15.671875 30.210938 15.671875 L 28.730469 15.671875 C 28.859375 16.515625 29.378906 17.351562 29.613281 17.632812 C 29.878906 17.949219 30.066406 18.382812 29.796875 18.660156 C 29.632812 18.832031 29.421875 18.835938 29.289062 18.8125 C 29.292969 18.886719 29.289062 18.980469 29.242188 19.074219 C 29.203125 19.15625 29.140625 19.226562 29.050781 19.28125 C 29.199219 19.648438 30.050781 21.765625 30.480469 22.863281 L 31.253906 22.863281 L 31.253906 7.378906 C 31.253906 7.152344 31.066406 6.96875 30.839844 6.96875 L 24.550781 6.96875 C 24.515625 7.035156 24.480469 7.09375 24.449219 7.140625 C 24.390625 7.234375 24.316406 7.351562 24.234375 7.488281 C 23.625 8.480469 23 9.46875 22.664062 9.699219 C 22.304688 9.945312 21.816406 9.878906 21.296875 9.804688 C 21.175781 9.785156 21.050781 9.765625 20.929688 9.753906 C 20.375 9.695312 19.839844 9.539062 19.710938 9.5 C 19.609375 9.542969 19.28125 9.652344 18.96875 9.539062 C 18.933594 9.714844 18.820312 9.933594 18.554688 9.9375 C 18.542969 9.9375 18.535156 9.9375 18.523438 9.9375 C 18.292969 9.9375 18.171875 9.886719 18.109375 9.847656 C 18.066406 9.859375 18.011719 9.867188 17.949219 9.84375 C 17.902344 9.828125 17.84375 9.78125 17.808594 9.675781 C 17.757812 9.515625 17.769531 9.292969 17.777344 9.113281 C 17.78125 9.097656 17.78125 9.082031 17.78125 9.066406 C 17.746094 9.085938 17.703125 9.125 17.667969 9.207031 C 17.648438 9.25 17.636719 9.285156 17.621094 9.316406 C 17.5625 9.464844 17.519531 9.570312 17.304688 9.53125 C 17.246094 9.519531 17.203125 9.484375 17.175781 9.433594 C 17.074219 9.214844 17.339844 8.722656 17.371094 8.667969 C 17.515625 8.410156 17.71875 8.121094 18.066406 8.175781 C 18.15625 8.1875 18.265625 8.210938 18.390625 8.238281 C 18.640625 8.292969 18.957031 8.359375 19.273438 8.378906 C 19.609375 8.398438 20.8125 8.464844 21.492188 8.503906 L 22.492188 7.019531 L 17.097656 7.019531 C 17.070312 7.242188 17.003906 7.488281 16.828125 7.488281 C 16.710938 7.488281 16.640625 7.414062 16.597656 7.316406 C 16.535156 7.414062 16.445312 7.5 16.324219 7.5 C 16.203125 7.5 15.824219 7.5 15.734375 7.128906 C 15.730469 7.117188 15.730469 7.105469 15.726562 7.09375 L 10.269531 7.09375 C 10.042969 7.09375 9.855469 7.277344 9.855469 7.5 Z M 9.183594 10.792969 C 9.132812 10.410156 8.964844 10.144531 8.792969 9.960938 C 8.785156 9.964844 8.777344 9.964844 8.769531 9.96875 C 8.742188 9.980469 8.71875 9.992188 8.695312 10.003906 C 8.65625 10.035156 8.625 10.074219 8.585938 10.121094 L 8.585938 10.125 C 8.574219 10.140625 8.554688 10.144531 8.539062 10.132812 C 8.527344 10.125 8.523438 10.113281 8.523438 10.101562 C 8.527344 10.066406 8.535156 10.03125 8.558594 10 C 8.578125 9.964844 8.605469 9.9375 8.640625 9.917969 C 8.667969 9.902344 8.695312 9.894531 8.722656 9.890625 C 8.597656 9.773438 8.476562 9.699219 8.410156 9.664062 L 7.355469 10.816406 C 7.34375 10.832031 7.324219 10.84375 7.300781 10.84375 C 7.261719 10.847656 7.140625 10.871094 7.09375 10.933594 C 7.070312 10.960938 7.066406 10.988281 7.070312 11.027344 C 7.074219 11.050781 7.085938 11.066406 7.109375 11.082031 C 7.210938 11.152344 7.472656 11.117188 7.554688 11.097656 C 7.597656 11.089844 7.640625 11.113281 7.652344 11.15625 C 7.660156 11.179688 7.777344 11.605469 7.800781 12 L 8.570312 11.847656 L 8.542969 11.609375 C 8.539062 11.585938 8.546875 11.558594 8.566406 11.542969 C 8.585938 11.523438 8.609375 11.515625 8.636719 11.519531 C 8.636719 11.519531 8.890625 11.542969 9.050781 11.382812 C 9.171875 11.265625 9.21875 11.066406 9.183594 10.792969 Z M 7.566406 11.769531 L 7.617188 11.84375 C 7.589844 11.609375 7.539062 11.382812 7.511719 11.273438 C 7.386719 11.289062 7.152344 11.308594 7.015625 11.214844 C 6.957031 11.175781 6.917969 11.121094 6.910156 11.054688 C 6.894531 10.96875 6.914062 10.894531 6.960938 10.832031 C 7.042969 10.730469 7.1875 10.695312 7.253906 10.683594 L 8.328125 9.507812 C 8.355469 9.480469 8.390625 9.472656 8.425781 9.488281 C 8.441406 9.496094 8.667969 9.59375 8.894531 9.824219 C 9.136719 9.289062 9.007812 8.90625 8.929688 8.855469 C 8.871094 8.820312 8.742188 8.910156 8.6875 8.964844 C 8.664062 8.988281 8.632812 8.996094 8.605469 8.988281 C 8.574219 8.980469 8.550781 8.957031 8.546875 8.925781 C 8.542969 8.925781 8.488281 8.683594 8.292969 8.613281 C 8.125 8.550781 7.980469 8.816406 7.980469 8.816406 C 7.96875 8.839844 7.945312 8.859375 7.917969 8.863281 C 7.890625 8.867188 7.863281 8.855469 7.84375 8.835938 C 7.8125 8.800781 7.777344 8.785156 7.734375 8.792969 C 7.554688 8.804688 7.300781 9.097656 7.171875 9.289062 C 7.050781 9.46875 6.898438 9.570312 6.71875 9.683594 C 6.664062 9.722656 6.605469 9.757812 6.546875 9.800781 C 6.34375 9.941406 6.28125 10.214844 6.34375 10.671875 C 6.382812 11.273438 6.917969 11.476562 7.234375 11.546875 C 7.371094 11.578125 7.488281 11.65625 7.566406 11.769531 Z M 6.25 15.246094 C 6.28125 15.367188 6.3125 15.484375 6.335938 15.59375 C 6.351562 15.660156 6.367188 15.734375 6.382812 15.820312 C 6.511719 16.457031 6.722656 17.515625 7.527344 17.429688 C 7.878906 17.390625 8.273438 17.324219 8.640625 17.253906 C 8.25 16.828125 8.476562 16.210938 8.585938 15.972656 C 8.273438 15.941406 8.019531 15.914062 7.953125 15.894531 C 7.863281 15.875 7.757812 15.78125 7.609375 14.941406 C 7.535156 14.515625 7.484375 14.09375 7.484375 14.089844 C 7.476562 14.042969 7.511719 14.003906 7.554688 13.996094 C 7.605469 13.992188 7.644531 14.023438 7.648438 14.070312 C 7.652344 14.105469 7.65625 14.140625 7.660156 14.175781 L 9.769531 12.28125 C 9.753906 12.28125 9.742188 12.277344 9.730469 12.269531 L 8.949219 12.324219 C 8.769531 12.339844 8.613281 12.210938 8.59375 12.035156 L 8.589844 12.011719 L 7.804688 12.164062 C 7.804688 12.199219 7.800781 12.230469 7.800781 12.265625 C 7.785156 12.429688 7.660156 12.5625 7.492188 12.59375 C 7.148438 12.65625 6.328125 12.851562 6.125 13.328125 C 5.898438 13.859375 6.09375 14.628906 6.25 15.246094 Z M 4.929688 17.4375 L 5.484375 17.992188 L 6.566406 16.992188 C 6.375 16.628906 6.285156 16.171875 6.21875 15.851562 C 6.214844 15.828125 6.210938 15.800781 6.203125 15.777344 L 4.929688 17.03125 C 4.816406 17.140625 4.816406 17.324219 4.929688 17.4375 Z M 7.390625 19.890625 C 7.503906 20.003906 7.683594 20.007812 7.800781 19.90625 L 10.304688 17.699219 C 10.136719 17.53125 9.96875 17.304688 9.859375 17.15625 C 9.59375 17.21875 8.425781 17.496094 7.546875 17.59375 C 7.132812 17.640625 6.847656 17.4375 6.65625 17.140625 L 5.601562 18.109375 Z M 10.828125 32.519531 C 10.765625 32.359375 10.652344 32.125 10.507812 32.039062 C 10.414062 31.984375 10.289062 31.949219 10.15625 31.914062 C 9.96875 31.867188 9.753906 31.808594 9.578125 31.664062 C 9.296875 31.433594 9.246094 30.929688 9.253906 30.671875 L 7.90625 30.671875 L 7.851562 32.53125 Z M 10.019531 30.507812 L 9.511719 30.363281 L 9.5 30.59375 C 9.5 30.636719 9.464844 30.671875 9.417969 30.671875 C 9.414062 30.917969 9.46875 31.363281 9.683594 31.539062 C 9.832031 31.660156 10.019531 31.710938 10.203125 31.757812 C 10.34375 31.796875 10.480469 31.832031 10.59375 31.898438 C 10.726562 31.976562 10.828125 32.132812 10.898438 32.273438 L 11.023438 32.242188 C 10.957031 31.90625 10.652344 31.703125 10.398438 31.589844 C 10.035156 31.425781 10.003906 31.292969 9.964844 30.976562 C 9.933594 30.746094 9.988281 30.582031 10.019531 30.507812 Z M 10.71875 17.929688 C 10.707031 17.933594 10.691406 17.9375 10.675781 17.9375 C 10.675781 17.9375 10.671875 17.9375 10.667969 17.9375 C 10.597656 17.9375 10.515625 17.890625 10.425781 17.8125 L 7.914062 20.027344 C 7.824219 20.105469 7.714844 20.144531 7.605469 20.144531 C 7.589844 20.144531 7.578125 20.140625 7.566406 20.140625 L 7.816406 30.507812 L 9.339844 30.507812 L 9.917969 19.613281 C 9.917969 19.605469 9.917969 19.601562 9.921875 19.59375 L 10.109375 18.980469 C 10.121094 18.9375 10.167969 18.914062 10.210938 18.925781 C 10.253906 18.9375 10.28125 18.984375 10.265625 19.027344 L 10.082031 19.632812 L 9.523438 30.195312 L 10.402344 30.449219 C 10.570312 29.878906 11.582031 26.386719 11.734375 24.773438 C 11.882812 23.15625 10.878906 18.632812 10.71875 17.929688 Z M 11.789062 22.777344 L 21.921875 22.777344 C 21.769531 22.550781 21.417969 22.039062 20.996094 21.472656 C 20.410156 20.691406 20.324219 20.042969 20.738281 19.546875 C 21.035156 19.191406 21.492188 19.167969 21.734375 19.1875 C 21.675781 19.074219 21.625 18.964844 21.582031 18.867188 L 19.496094 18.867188 C 19.476562 18.867188 19.453125 18.859375 19.4375 18.84375 L 18.609375 18.042969 L 17.539062 18.625 C 17.527344 18.632812 17.515625 18.636719 17.5 18.636719 C 17.484375 18.636719 17.46875 18.632812 17.457031 18.625 L 16.472656 18.046875 L 15.023438 19.960938 C 15.007812 19.984375 14.984375 19.996094 14.957031 19.996094 L 11.324219 19.996094 C 11.496094 20.867188 11.671875 21.871094 11.789062 22.777344 Z M 23.628906 23.964844 L 23.863281 23.964844 L 23.449219 22.898438 L 23.324219 22.773438 C 23.324219 22.773438 23.324219 22.773438 23.320312 22.773438 L 22.117188 22.773438 C 22.132812 22.796875 22.144531 22.808594 22.144531 22.8125 C 22.152344 22.824219 22.15625 22.84375 22.15625 22.863281 L 22.125 23.21875 C 22.121094 23.261719 22.085938 23.292969 22.042969 23.292969 C 22.042969 23.292969 22.042969 23.292969 22.039062 23.292969 C 22.003906 23.292969 21.347656 23.300781 21.132812 23.578125 C 21.011719 23.734375 20.996094 23.867188 21 23.9375 Z M 20.054688 24.480469 L 20.054688 24.765625 L 31.421875 24.765625 L 31.421875 24.480469 C 31.421875 24.289062 31.261719 24.128906 31.0625 24.128906 L 24.011719 24.128906 C 24.003906 24.132812 23.996094 24.132812 23.988281 24.132812 C 23.988281 24.132812 23.984375 24.132812 23.984375 24.132812 L 23.632812 24.128906 L 20.414062 24.128906 C 20.21875 24.128906 20.054688 24.289062 20.054688 24.480469 Z M 24.652344 26.75 L 24.03125 26.75 L 24.359375 27.144531 C 24.417969 26.988281 24.542969 26.847656 24.652344 26.75 Z M 24.828125 27.519531 C 24.707031 27.332031 24.605469 27.179688 24.558594 27.109375 C 24.515625 27.183594 24.492188 27.261719 24.496094 27.335938 C 24.5 27.390625 24.523438 27.433594 24.5625 27.460938 C 24.632812 27.511719 24.742188 27.519531 24.828125 27.519531 Z M 25.355469 29.757812 C 25.398438 29.917969 25.472656 30.074219 25.515625 30.105469 C 25.660156 30.015625 26.386719 29.144531 26.433594 29.035156 C 26.433594 29.027344 26.429688 28.984375 26.425781 28.953125 C 26.40625 28.804688 26.375 28.554688 26.582031 28.363281 C 26.730469 28.226562 26.90625 28.210938 27.042969 28.222656 C 26.871094 27.980469 26.667969 27.703125 26.46875 27.4375 C 26.371094 27.425781 26.03125 27.402344 25.746094 27.597656 C 25.414062 27.820312 25.417969 28.164062 25.417969 28.175781 C 25.417969 28.179688 25.414062 28.183594 25.414062 28.1875 C 25.503906 28.355469 25.570312 28.507812 25.597656 28.617188 C 25.695312 29.03125 25.679688 29.085938 25.507812 29.449219 L 25.457031 29.5625 C 25.425781 29.625 25.390625 29.691406 25.355469 29.757812 Z M 27.445312 28.851562 C 27.414062 28.773438 27.3125 28.617188 27.175781 28.417969 C 27.136719 28.402344 26.875 28.320312 26.695312 28.484375 C 26.550781 28.617188 26.574219 28.800781 26.59375 28.933594 C 26.597656 28.992188 26.605469 29.035156 26.597656 29.074219 C 26.570312 29.195312 25.730469 30.199219 25.566406 30.265625 C 25.550781 30.269531 25.53125 30.273438 25.515625 30.273438 C 25.492188 30.273438 25.46875 30.269531 25.445312 30.257812 C 25.359375 30.214844 25.292969 30.078125 25.25 29.960938 C 25.046875 30.339844 24.957031 30.601562 25.214844 30.742188 C 25.609375 30.957031 26.089844 30.53125 26.632812 29.992188 C 26.734375 29.886719 26.832031 29.796875 26.917969 29.710938 C 27.394531 29.25 27.542969 29.09375 27.445312 28.851562 Z M 25.945312 26.75 L 24.917969 26.75 C 24.851562 26.792969 24.75 26.875 24.664062 26.972656 C 24.664062 26.972656 24.667969 26.976562 24.671875 26.976562 C 24.691406 27.007812 25.023438 27.492188 25.289062 27.953125 C 25.332031 27.804688 25.429688 27.609375 25.652344 27.460938 C 25.894531 27.296875 26.164062 27.265625 26.339844 27.265625 C 26.195312 27.074219 26.058594 26.894531 25.945312 26.75 Z M 31.421875 26.234375 L 31.421875 24.929688 L 20.054688 24.929688 L 20.054688 26.234375 C 20.054688 26.425781 20.21875 26.585938 20.414062 26.585938 L 31.0625 26.585938 C 31.261719 26.585938 31.421875 26.425781 31.421875 26.234375 Z M 29.238281 24.449219 C 29.238281 24.328125 29.339844 24.226562 29.464844 24.226562 C 29.59375 24.226562 29.695312 24.328125 29.695312 24.449219 C 29.695312 24.574219 29.59375 24.671875 29.464844 24.671875 C 29.339844 24.671875 29.238281 24.574219 29.238281 24.449219 Z M 29.40625 24.449219 C 29.40625 24.484375 29.433594 24.507812 29.464844 24.507812 C 29.5 24.507812 29.527344 24.484375 29.527344 24.449219 C 29.527344 24.417969 29.5 24.390625 29.464844 24.390625 C 29.433594 24.390625 29.40625 24.417969 29.40625 24.449219 Z M 29.769531 24.449219 C 29.769531 24.328125 29.871094 24.226562 29.996094 24.226562 C 30.121094 24.226562 30.222656 24.328125 30.222656 24.449219 C 30.222656 24.574219 30.121094 24.671875 29.996094 24.671875 C 29.871094 24.671875 29.769531 24.574219 29.769531 24.449219 Z M 29.933594 24.449219 C 29.933594 24.484375 29.960938 24.507812 29.996094 24.507812 C 30.027344 24.507812 30.058594 24.484375 30.058594 24.449219 C 30.058594 24.417969 30.027344 24.390625 29.996094 24.390625 C 29.960938 24.390625 29.933594 24.417969 29.933594 24.449219 Z M 30.273438 24.449219 C 30.273438 24.328125 30.375 24.226562 30.503906 24.226562 C 30.628906 24.226562 30.730469 24.328125 30.730469 24.449219 C 30.730469 24.574219 30.628906 24.671875 30.503906 24.671875 C 30.375 24.671875 30.273438 24.574219 30.273438 24.449219 Z M 30.441406 24.449219 C 30.441406 24.484375 30.46875 24.507812 30.503906 24.507812 C 30.535156 24.507812 30.5625 24.484375 30.5625 24.449219 C 30.5625 24.417969 30.535156 24.390625 30.503906 24.390625 C 30.46875 24.390625 30.441406 24.417969 30.441406 24.449219 Z M 12.796875 10.273438 C 12.796875 10.128906 12.917969 10.011719 13.0625 10.011719 C 13.210938 10.011719 13.328125 10.128906 13.328125 10.273438 C 13.328125 10.417969 13.210938 10.535156 13.0625 10.535156 C 12.917969 10.535156 12.796875 10.417969 12.796875 10.273438 Z M 12.964844 10.273438 C 12.964844 10.328125 13.007812 10.371094 13.0625 10.371094 C 13.117188 10.371094 13.164062 10.324219 13.164062 10.273438 C 13.164062 10.21875 13.117188 10.175781 13.0625 10.175781 C 13.007812 10.175781 12.964844 10.21875 12.964844 10.273438 Z M 13.292969 9.785156 C 13.292969 9.640625 13.414062 9.523438 13.558594 9.523438 C 13.707031 9.523438 13.828125 9.640625 13.828125 9.785156 C 13.828125 9.929688 13.707031 10.046875 13.558594 10.046875 C 13.414062 10.046875 13.292969 9.929688 13.292969 9.785156 Z M 13.460938 9.785156 C 13.460938 9.839844 13.507812 9.882812 13.558594 9.882812 C 13.613281 9.882812 13.660156 9.835938 13.660156 9.785156 C 13.660156 9.730469 13.613281 9.6875 13.558594 9.6875 C 13.507812 9.6875 13.460938 9.730469 13.460938 9.785156 Z M 12.300781 10.746094 C 12.300781 10.601562 12.421875 10.484375 12.566406 10.484375 C 12.714844 10.484375 12.832031 10.601562 12.832031 10.746094 C 12.832031 10.890625 12.714844 11.007812 12.566406 11.007812 C 12.421875 11.007812 12.300781 10.890625 12.300781 10.746094 Z M 12.46875 10.746094 C 12.46875 10.800781 12.511719 10.84375 12.566406 10.84375 C 12.621094 10.84375 12.667969 10.800781 12.667969 10.746094 C 12.667969 10.695312 12.621094 10.648438 12.566406 10.648438 C 12.511719 10.648438 12.46875 10.695312 12.46875 10.746094 Z M 8.167969 10.457031 C 8.121094 10.480469 8.113281 10.554688 8.148438 10.621094 C 8.183594 10.6875 8.246094 10.722656 8.292969 10.703125 C 8.339844 10.679688 8.351562 10.605469 8.316406 10.539062 C 8.28125 10.46875 8.214844 10.433594 8.167969 10.457031 Z M 8.789062 10.140625 C 8.742188 10.164062 8.734375 10.238281 8.769531 10.304688 C 8.800781 10.371094 8.867188 10.40625 8.914062 10.386719 C 8.960938 10.363281 8.96875 10.289062 8.9375 10.222656 C 8.902344 10.152344 8.835938 10.117188 8.789062 10.140625 Z M 8.617188 10.765625 C 8.640625 10.769531 8.667969 10.769531 8.691406 10.769531 C 8.71875 10.765625 8.746094 10.757812 8.773438 10.746094 C 8.800781 10.730469 8.828125 10.710938 8.839844 10.679688 C 8.855469 10.648438 8.859375 10.621094 8.847656 10.585938 C 8.847656 10.578125 8.84375 10.574219 8.835938 10.570312 C 8.820312 10.558594 8.800781 10.5625 8.789062 10.578125 L 8.777344 10.59375 C 8.769531 10.605469 8.761719 10.621094 8.753906 10.628906 C 8.746094 10.640625 8.738281 10.648438 8.722656 10.65625 C 8.710938 10.664062 8.695312 10.667969 8.675781 10.675781 C 8.660156 10.679688 8.636719 10.683594 8.617188 10.6875 C 8.601562 10.691406 8.585938 10.703125 8.585938 10.71875 C 8.578125 10.742188 8.59375 10.761719 8.617188 10.765625 Z M 8.835938 10.976562 C 8.796875 11 8.757812 11.011719 8.710938 11.019531 C 8.667969 11.027344 8.621094 11.027344 8.574219 11.027344 L 8.570312 11.027344 C 8.554688 11.027344 8.539062 11.039062 8.535156 11.054688 C 8.53125 11.074219 8.542969 11.09375 8.5625 11.097656 C 8.589844 11.101562 8.613281 11.109375 8.640625 11.113281 C 8.667969 11.113281 8.695312 11.117188 8.722656 11.113281 C 8.777344 11.109375 8.832031 11.089844 8.882812 11.066406 C 8.933594 11.042969 8.976562 11.007812 9.011719 10.964844 C 9.046875 10.921875 9.074219 10.875 9.089844 10.820312 C 9.09375 10.800781 9.085938 10.785156 9.070312 10.773438 C 9.050781 10.765625 9.027344 10.769531 9.015625 10.789062 L 9.011719 10.792969 C 8.992188 10.828125 8.964844 10.867188 8.933594 10.898438 C 8.90625 10.929688 8.871094 10.957031 8.835938 10.976562 Z M 8.210938 10.300781 C 8.222656 10.300781 8.226562 10.292969 8.230469 10.285156 C 8.234375 10.273438 8.230469 10.257812 8.214844 10.253906 C 8.179688 10.238281 8.144531 10.234375 8.105469 10.238281 C 8.070312 10.242188 8.03125 10.253906 8 10.273438 C 7.964844 10.292969 7.933594 10.320312 7.914062 10.355469 C 7.894531 10.386719 7.882812 10.421875 7.878906 10.457031 C 7.878906 10.46875 7.882812 10.480469 7.894531 10.488281 C 7.910156 10.5 7.929688 10.496094 7.941406 10.480469 L 7.945312 10.476562 C 7.980469 10.429688 8.011719 10.386719 8.054688 10.359375 C 8.074219 10.34375 8.097656 10.335938 8.125 10.324219 C 8.152344 10.3125 8.179688 10.308594 8.207031 10.300781 Z M 21.859375 3.996094 C 21.8125 4.015625 21.792969 4.085938 21.820312 4.15625 C 21.847656 4.226562 21.910156 4.269531 21.957031 4.25 C 22.007812 4.234375 22.023438 4.160156 21.996094 4.089844 C 21.96875 4.019531 21.910156 3.976562 21.859375 3.996094 Z M 21.203125 4.230469 C 21.15625 4.25 21.136719 4.320312 21.164062 4.390625 C 21.191406 4.460938 21.253906 4.503906 21.300781 4.488281 C 21.347656 4.46875 21.367188 4.398438 21.339844 4.328125 C 21.3125 4.257812 21.25 4.214844 21.203125 4.230469 Z M 21.570312 4.632812 C 21.601562 4.644531 21.636719 4.640625 21.664062 4.628906 C 21.695312 4.621094 21.71875 4.601562 21.738281 4.585938 C 21.757812 4.570312 21.773438 4.546875 21.785156 4.527344 C 21.796875 4.515625 21.796875 4.496094 21.785156 4.484375 C 21.773438 4.464844 21.75 4.460938 21.730469 4.476562 L 21.726562 4.476562 C 21.710938 4.488281 21.695312 4.5 21.679688 4.511719 C 21.660156 4.519531 21.648438 4.527344 21.632812 4.53125 C 21.617188 4.535156 21.605469 4.535156 21.59375 4.535156 C 21.582031 4.535156 21.566406 4.53125 21.550781 4.527344 L 21.53125 4.523438 C 21.523438 4.523438 21.515625 4.523438 21.507812 4.53125 C 21.492188 4.539062 21.488281 4.558594 21.496094 4.574219 C 21.515625 4.605469 21.539062 4.625 21.570312 4.632812 Z M 22.015625 4.6875 L 22.011719 4.691406 C 21.980469 4.726562 21.949219 4.757812 21.910156 4.785156 C 21.875 4.8125 21.835938 4.832031 21.796875 4.84375 C 21.757812 4.859375 21.714844 4.867188 21.667969 4.863281 C 21.625 4.867188 21.578125 4.859375 21.539062 4.847656 L 21.535156 4.847656 C 21.515625 4.84375 21.496094 4.851562 21.488281 4.867188 C 21.480469 4.886719 21.484375 4.910156 21.507812 4.921875 C 21.558594 4.949219 21.609375 4.960938 21.667969 4.964844 C 21.722656 4.96875 21.777344 4.960938 21.832031 4.941406 C 21.882812 4.921875 21.933594 4.894531 21.972656 4.855469 C 21.996094 4.839844 22.011719 4.816406 22.027344 4.796875 C 22.042969 4.773438 22.054688 4.753906 22.070312 4.730469 C 22.078125 4.714844 22.074219 4.699219 22.0625 4.6875 C 22.050781 4.675781 22.027344 4.675781 22.015625 4.6875 Z M 21.25 3.96875 C 21.214844 3.960938 21.171875 3.964844 21.136719 3.972656 C 21.097656 3.984375 21.0625 4.003906 21.035156 4.03125 C 21.007812 4.054688 20.988281 4.082031 20.972656 4.117188 C 20.96875 4.125 20.96875 4.136719 20.976562 4.140625 C 20.984375 4.152344 21 4.15625 21.011719 4.148438 L 21.015625 4.144531 C 21.035156 4.128906 21.0625 4.113281 21.085938 4.097656 C 21.113281 4.085938 21.136719 4.078125 21.164062 4.070312 C 21.210938 4.0625 21.261719 4.066406 21.324219 4.074219 L 21.328125 4.074219 C 21.339844 4.074219 21.351562 4.070312 21.359375 4.0625 C 21.371094 4.046875 21.367188 4.023438 21.351562 4.015625 C 21.324219 3.992188 21.289062 3.972656 21.25 3.96875 Z M 21.710938 3.921875 L 21.714844 3.921875 C 21.738281 3.902344 21.765625 3.886719 21.789062 3.875 C 21.816406 3.863281 21.839844 3.851562 21.863281 3.847656 C 21.914062 3.835938 21.964844 3.839844 22.027344 3.847656 L 22.03125 3.847656 C 22.042969 3.851562 22.054688 3.84375 22.0625 3.835938 C 22.074219 3.820312 22.070312 3.800781 22.054688 3.789062 C 22.027344 3.765625 21.992188 3.75 21.953125 3.742188 C 21.917969 3.734375 21.875 3.738281 21.839844 3.75 C 21.800781 3.761719 21.765625 3.777344 21.738281 3.804688 C 21.710938 3.828125 21.691406 3.859375 21.675781 3.894531 C 21.671875 3.902344 21.671875 3.910156 21.679688 3.917969 C 21.6875 3.929688 21.703125 3.929688 21.710938 3.921875 Z M 25.496094 15.316406 C 25.460938 15.3125 25.425781 15.351562 25.417969 15.40625 C 25.414062 15.460938 25.4375 15.507812 25.476562 15.511719 C 25.511719 15.515625 25.546875 15.476562 25.554688 15.421875 C 25.5625 15.367188 25.535156 15.320312 25.496094 15.316406 Z M 25.640625 15.183594 C 25.617188 15.167969 25.589844 15.15625 25.5625 15.148438 C 25.535156 15.148438 25.507812 15.144531 25.480469 15.15625 C 25.457031 15.160156 25.433594 15.171875 25.410156 15.191406 C 25.40625 15.195312 25.402344 15.203125 25.40625 15.207031 C 25.40625 15.21875 25.417969 15.222656 25.425781 15.222656 L 25.429688 15.222656 C 25.449219 15.21875 25.472656 15.214844 25.492188 15.214844 C 25.511719 15.214844 25.53125 15.214844 25.550781 15.222656 C 25.566406 15.226562 25.585938 15.230469 25.601562 15.242188 C 25.617188 15.25 25.632812 15.261719 25.652344 15.273438 L 25.65625 15.277344 C 25.664062 15.28125 25.671875 15.28125 25.679688 15.277344 C 25.691406 15.269531 25.695312 15.257812 25.691406 15.246094 C 25.679688 15.222656 25.664062 15.199219 25.640625 15.183594 Z M 28.308594 13.175781 C 28.289062 13.203125 28.265625 13.214844 28.234375 13.214844 C 28.222656 13.214844 28.207031 13.210938 28.191406 13.203125 L 26.921875 12.441406 L 25.757812 13.101562 C 25.746094 13.109375 25.730469 13.113281 25.714844 13.113281 C 25.703125 13.113281 25.6875 13.109375 25.675781 13.101562 L 24.519531 12.445312 L 24.117188 12.761719 C 24.101562 12.773438 24.082031 12.777344 24.066406 12.777344 C 24.039062 12.777344 24.015625 12.765625 24 12.746094 C 23.972656 12.710938 23.976562 12.660156 24.011719 12.632812 L 24.425781 12.308594 L 24.425781 10.980469 C 24.425781 10.949219 24.441406 10.921875 24.46875 10.90625 L 25.675781 10.226562 C 25.699219 10.210938 25.730469 10.210938 25.757812 10.226562 L 26.964844 10.90625 C 26.988281 10.921875 27.003906 10.949219 27.003906 10.980469 L 27.003906 12.300781 L 28.277344 13.0625 C 28.320312 13.085938 28.332031 13.136719 28.308594 13.175781 Z M 26.839844 11.027344 L 25.71875 10.390625 L 24.59375 11.027344 L 24.59375 12.300781 L 25.71875 12.9375 L 26.839844 12.300781 Z M 30.078125 10.21875 C 30.109375 10.25 30.105469 10.304688 30.070312 10.332031 L 29.421875 10.890625 L 29.421875 11.738281 C 29.421875 11.765625 29.40625 11.792969 29.378906 11.808594 L 28.601562 12.25 C 28.585938 12.257812 28.574219 12.261719 28.558594 12.261719 C 28.542969 12.261719 28.53125 12.257812 28.515625 12.25 L 27.738281 11.808594 C 27.710938 11.792969 27.695312 11.769531 27.695312 11.738281 L 27.695312 10.855469 C 27.695312 10.824219 27.710938 10.796875 27.738281 10.78125 L 28.515625 10.339844 C 28.542969 10.324219 28.574219 10.324219 28.601562 10.339844 L 29.328125 10.753906 L 29.960938 10.207031 C 29.996094 10.179688 30.046875 10.183594 30.078125 10.21875 Z M 29.253906 10.902344 L 28.558594 10.507812 L 27.863281 10.902344 L 27.863281 11.691406 L 28.558594 12.085938 L 29.253906 11.691406 Z M 29.253906 10.902344 "/></g></g></svg>